<?xml version="1.0" encoding="utf-8"?>
<!-- Generator: Adobe Illustrator 25.0.0, SVG Export Plug-In . SVG Version: 6.00 Build 0)  -->
<svg version="1.1" id="Layer_1" xmlns="http://www.w3.org/2000/svg" xmlns:xlink="http://www.w3.org/1999/xlink" x="0px" y="0px"
	 viewBox="0 0 226.5 86.5" style="enable-background:new 0 0 226.5 86.5;" xml:space="preserve">
<style type="text/css">
	.st0{fill:#FFFFFF;}
	.st1{fill:#EA0029;}
	.st2{fill:#231F20;}
	.st3{fill:#020203;}
	.st4{fill:#DD0B2A;}
</style>
<g>
	<path class="st0" d="M223.8,43.1c0.1-11.6-2.4-18.1-4.7-21.3c0.8-1,1.2-1.6,1.3-1.6c0.2-0.2,0.6-0.6,1.4-0.7
		c0.2-1.5,0.8-3.4,0.8-3.4s-1.5,1.1-3,1.7c0.1,0.8-0.1,1.2-0.3,1.5c0,0-0.4,0.5-1,1.3c-1-1.1-2.1-2.2-3.8-3.1
		c-0.4-0.2-0.8-0.4-1.3-0.6c0-0.6-0.2-1.2-0.6-1.6c0-0.4-0.3-0.8-0.7-0.9l0,0c-0.4-0.1-0.9,0.1-1.2,0.3c-0.6,0.1-1.2,0.4-1.7,0.9
		c-1.4-0.3-2.9-0.5-4.7-0.6c-0.2-0.9-0.8-1.5-1.5-1.8c-0.2-0.4-0.7-0.7-1.1-0.8h0h0h0c-0.4,0-1,0.4-1.1,0.8c-0.7,0.3-1.2,1-1.5,1.8
		c-1.8,0.1-3.3,0.3-4.7,0.6c-0.4-0.5-1-0.8-1.7-0.9c-0.3-0.3-0.8-0.4-1.2-0.3l0,0c-0.4,0.1-0.7,0.6-0.7,0.9c-0.4,0.4-0.6,1-0.6,1.6
		c-0.5,0.2-0.9,0.4-1.3,0.6c-1.6,1-2.7,1.8-3.7,3.1c-0.5-0.7-0.9-1.1-0.9-1.2c-0.2-0.3-0.4-0.8-0.3-1.5c-1.4-0.6-3-1.7-3-1.7
		s0.6,1.8,0.8,3.4c0.8,0.1,1.2,0.5,1.4,0.7c0,0,0.4,0.6,1.1,1.4c-2.2,3.2-4.8,9.7-4.7,21.4c0,1.1-0.5,11.2,2.9,18
		c0.4,0.7,1.4,2.5,3.2,4.2c1.5,1.4,3.3,2.4,5.3,2.9c0.1,0,0.2,0,0.2,0.1c2.5,0.7,4.6,0.3,5.5-0.2l-0.1,0.3c0,0.1-0.1,0.2-0.1,0.3
		c-0.5,1.3-0.2,2.6,1.5,2.8c0.4,0,1,0.1,1.5,0.3c0.4,0.2,0.9,0.5,1.4,1c0.2,0.2,0.7,0.8,0.9,1.2v0v0c0.2-0.4,0.7-1,0.9-1.2
		c0.5-0.5,1-0.8,1.4-1c0.6-0.3,1.1-0.3,1.5-0.3c1.7-0.2,2-1.5,1.5-2.7c0-0.1-0.1-0.2-0.1-0.3c0-0.1-0.1-0.3-0.1-0.3
		c1.2,0.7,4.8,1.2,8.3-1c2.4-1.5,4.1-3.2,5.5-6C224.3,54.4,223.8,44.1,223.8,43.1 M208.5,33.8c0,0.1-0.1,0.1-0.2,0.2
		c-0.2,0.1-0.4,0.1-0.6,0.1c-0.3,0-0.4-0.1-0.5-0.3c-0.4-0.6-0.6-1.1-1.1-2.1c-0.4-0.9-0.3-0.7-0.8-2c-0.3-0.6-0.7-1.6-1-1.9
		c-0.4-0.5-1.1-1.1-1.4-1.2c-0.3-0.1-0.8-0.2-1.2-0.3c-0.8,0-1.7,0.1-2,0.2c-0.3,0.1-0.8,0.2-1,0.5c0,0-0.2,0.2-0.3,0.3
		c-0.4,0.2-0.5,0.2-0.9,0.5c-0.8,0.6-0.6,1.4-0.2,1.8c0,0,0,0,0,0c0-0.2,0-0.4,0-0.4c0,0,0.4,0.3,1,0.2c0.4-0.1,0.7,0.6,0.7,0.6
		l0.1-0.2c0,0,0.1,0.4,0.2,0.5c0,0,0.1-0.1,0.1-0.1c0.1,0.2,0.3,0.3,0.4,0.5c0,0.2-0.1,0.5-0.4,0.7c-0.1,0.1-0.8,0.7-1.5,1.4
		c-0.4,0.4-0.6,0.6-0.9,1c-0.2,0.2-0.4,0.3-0.6,0.3c0,0-0.1,0-0.1,0c-0.2,0-0.4-0.1-0.5-0.2c-0.1-0.1-3.7-4.9-5.4-7.2
		c3.2-3.1,8.4-3.6,9.7-3.5c0.3,0,0.7,0.3,0.3,0.8c0.3,0.1,1.3,0,1.7-0.3c0.4,0.4,1.5,0.5,1.7,0.3c-0.4-0.5,0-0.7,0.3-0.8
		c1.3-0.1,6.3,0.1,9.7,3.6C212,29.2,209.7,32,208.5,33.8"/>
	<path class="st1" d="M223.1,39.9c-1,0.8-1.9,1.6-4.9,3.3l-0.8,0.4l0-0.6c0-0.1,0.2-7.7-3.5-14.4c-0.2,0.3-1,1.3-1.8,2.3
		c0.5-0.1,1,0.1,1.4,0.5c0.8,0.8,2,2.6,2.8,4.5c0.4,1.2,0.7,2.8,0.6,4.2c0,0,0,0,0,0s-0.5,7.8-1.3,15.3c-0.8,6.8-1.3,7.7-1.3,7.7
		c-0.5-0.6-0.7-1.4-0.9-1.9l-0.1,0.1c0,0-0.5-0.7-0.8-2c-0.3-1.5-0.4-4.3-0.3-5.6l0,0c0,0,0-0.4-0.3-1c-0.2-0.3-0.3-0.6-0.3-1
		c0,0,0,0,0,0c-0.5-2.1-1.4-2.7-2-3.3c-0.6-0.8-1.1-1.6-1.4-2.3c0,0,0,0-0.1,0c-0.3,0.3-0.6,0.7-0.6,0.9c0.1,1.2,0.2,2.1,0,2.7
		c-0.1,0-0.2-0.2-0.3-0.2c0.1,0.8-0.3,1.7-0.1,2.5l-0.5-0.1c0,0.1,0,0.1,0.1,0.1c0.1,0.1,0.1,0.1,0.2,0.2c0,0,0.1,0.1,0.2,0.1
		c0,0,0.2,0.1,0.5,0.2c0.3-0.6,0.1-1.2-0.2-1.5c-0.2-0.3,0-0.7,0.5-0.5c0.6,0.3,1.3,0.7,2,1.3c1,0.9,1.3,1.9,1.1,2
		c-0.2,0.1-0.3,0.1-0.5,0c0,0,0,0.1,0,0.1c-0.1,0.2-0.2,0.3-0.4,0.4l0,0c-0.1,0.2-0.3,0.2-0.6,0.2c-0.3,0-0.5-0.2-0.6-0.2
		c-0.1,0-0.1-0.1-0.2-0.1c-0.1,0-0.1,0.1-0.2,0.1c0.8,1.1,2.3,2.8,3.4,4.7c0.8,1.4,1.1,2.5,1.1,2.5s-0.4,0.1-1,0
		c0.2,0.6,0.3,1,0.3,1.4c-0.4,0-1,0-1.5-0.4c0,0.1,0,0.2,0,0.3c0.5,0.3,1,0.8,1.3,0.9c-2.4,1.1-5.8,0.6-5.9,0.6
		c-0.2,0-0.3,0-0.4-0.1c0,0.1-0.1,0.1-0.1,0.2c0.2,0.5,0.8,1.8,0.9,2.1c1.5,0.7,2.9,1.1,5.1,0.8c0,0,0.4,0,1.3-0.3
		c0.9-0.3,2.7-1.4,4.1-2.6c1.7-1.6,2.7-3.3,3.1-3.9c2.6-5.1,3.1-12.7,3.1-15.8c0-1,0-1.5,0-1.6C223.2,42.4,223.2,40.7,223.1,39.9"/>
	<path class="st1" d="M197.6,66.9c0.1-0.3,0.6-1.4,0.8-2c0-0.1-0.1-0.2-0.1-0.3c-0.3,0.1-0.7,0.1-1,0.1c-0.2,0-3.5,0.5-5.9-0.6
		c0.3-0.2,0.8-0.6,1.6-1.1c0,0,0-0.1,0-0.1c-0.6,0.3-1.1,0.4-1.5,0.4c0-0.4,0.1-0.9,0.3-1.4c-0.5,0.1-1,0-1,0s0.4-1.2,1.1-2.5
		c0.7-1.3,1.7-2.6,2.6-3.7c0.1-0.4,0.4-0.8,0.5-0.8c0,0,0.1-0.1,0.1-0.2c-0.1-0.1-0.2-0.2-0.3-0.2c-0.1,0.1-0.2,0.2-0.2,0.2
		c-0.3,0.1-0.4,0.2-0.6,0.2c-0.3,0-0.5,0-0.6-0.2l0,0c-0.2-0.1-0.4-0.2-0.4-0.4c0,0,0-0.1,0-0.1c-0.2,0.1-0.3,0.1-0.4-0.1
		c-0.2-0.2,0.1-1.1,1.1-2c0.7-0.7,1.4-1,2-1.3c0.5-0.2,0.7,0.2,0.5,0.5c-0.3,0.3-0.5,0.9-0.2,1.5c0.3-0.1,0.4-0.1,0.4-0.2
		c0.1,0,0.2-0.1,0.4-0.3c0,0,0-0.1,0-0.1l-0.4,0c0.2-0.5-0.1-1.8,0.1-2.6c-0.1,0-0.2,0.1-0.3,0.2c-0.2-0.8-0.1-2-0.1-2.5
		c0-0.2-0.2-0.4-0.5-0.7c-0.2,0.6-0.6,1.3-1.3,2.2c-0.5,0.6-1.5,1.2-2,3.3c0,0,0,0,0,0c-0.1,0.3-0.2,0.6-0.3,1c-0.3,0.7-0.3,1-0.3,1
		l0,0c0,1.3,0,4-0.3,5.6c-0.3,1.3-0.8,2-0.8,2l-0.1-0.1c-0.1,0.5-0.3,1.3-0.9,1.9c0,0-0.4-0.9-1.3-7.7c-0.9-7.5-1.3-15.3-1.3-15.3
		l0,0c-0.1-1.4,0.2-3,0.6-4.2c0.7-1.9,2-3.7,2.8-4.5c0.5-0.5,1-0.6,1.5-0.5c-0.1-0.2-0.3-0.4-0.3-0.4c-0.5-0.7-1.1-1.4-1.6-2.1
		c-3.7,6.4-3.6,14.1-3.6,14.2l0,0.8l-0.6-0.3c-2.9-1.6-4.1-2.6-5.1-3.4c0,0.8-0.1,3.4-0.1,3.4c0,0,0,0.6,0,1.6
		c0,3.1,0.6,10.6,3.1,15.8c0.4,0.6,1.3,2.4,3,4c1.3,1.2,2.8,2.1,4.4,2.6c0.1,0,0.3,0.1,0.4,0.1C193.4,68.1,195.5,68,197.6,66.9
		L197.6,66.9z"/>
	<path class="st1" d="M199.1,68.8c0-0.9,0.2-2.3,0.4-3.4c-0.3,0.3-0.5,0.4-0.6,0.4c0,0-0.1,0-0.2-0.1c-0.6,1.4-1.4,3.4-1.4,3.4
		C197.8,68.8,198.4,68.5,199.1,68.8"/>
	<path class="st1" d="M204.7,69.7c0-1-0.3-3.5-0.6-5c0,0-0.1-0.1-0.1-0.1c0-0.1-0.1-0.1-0.1-0.2c-0.1,0.3-0.2,0.6-0.3,0.9
		c-0.2,0.4-0.4,0.7-0.5,0.7c0,0-0.7-0.5-1.2-1.4c-0.4,0.9-1.1,1.4-1.2,1.4c0,0-0.3-0.4-0.5-0.7c-0.1-0.2-0.1-0.3-0.2-0.5
		c-0.2,1.5-0.6,4-0.5,4.9c-1.4-0.9-2.3,0-2,0.7c0,0.1,0.1,0.1,0.1,0.2c0.2,0.2,0.4,0.3,0.7,0.4c0.5,0,1.1,0.1,1.7,0.4
		c0.6,0.3,1.3,0.8,2,1.6c0.7-0.9,1.4-1.3,2-1.6c0.7-0.3,1.3-0.4,1.7-0.4c0.3,0,0.5-0.2,0.7-0.4c0,0,0.1-0.1,0.1-0.2
		C207,69.7,206.1,68.8,204.7,69.7"/>
	<path class="st1" d="M205.2,65.8c0,0-0.2-0.1-0.5-0.3c0.2,1.1,0.4,2.4,0.4,3.4c0.7-0.3,1.3-0.1,1.7,0.2c0,0-0.9-2.2-1.4-3.6
		C205.3,65.7,205.2,65.8,205.2,65.8"/>
	<path d="M211.8,41.5c-0.1,0.5-0.3,0.7-0.7,1c-0.2-0.8-0.4-1.4,0.7-3.6c-0.7,2.2-0.4,2.9-0.4,2.9S211.7,41.8,211.8,41.5 M210.7,40
		c0,0-0.3-0.5,0.4-2.4c-1.2,1.8-0.7,3.1-0.7,3.1s0.6-0.3,0.8-1C211,39.9,210.7,40,210.7,40 M214.9,36.8c-0.2,1.9-0.4,2.3-0.6,2.6
		c-0.2-0.1-0.3-0.5-0.3-0.5c-0.1,0.3,0,0.9,0.3,1.2C214.8,39.6,215.1,38.5,214.9,36.8 M214.6,35.5c-0.3,2.1-0.6,2.6-0.9,3
		c-0.2-0.1-0.3-0.7-0.3-0.7c-0.1,0.4,0,1,0.3,1.3C214.1,38.6,214.6,37.5,214.6,35.5 M213,37.6c-0.2-0.6-0.2-1.2-0.2-1.2
		c-0.3,0.8-0.2,1.5,0.1,1.9c0.5-0.5,1.2-2.1,1.1-3.6C213.7,36.5,213.2,37.2,213,37.6 M212.2,36.4c-0.1-0.6-0.1-1.5-0.1-1.5
		c-0.4,0.8-0.3,1.9-0.1,2.3c0.5-0.5,1.3-1.8,1.3-3.3C212.9,35.6,212.5,36.1,212.2,36.4 M214.8,40c0,0.4,0.4,0.7,0.4,0.7
		s0.6-0.9,0.4-2.4c-0.1,1.4-0.4,1.9-0.4,1.9S214.8,40.1,214.8,40 M215.5,40.6c0,0.4,0.3,0.6,0.3,0.6s0.5-0.8,0.2-2.2
		c-0.1,1.3-0.4,1.7-0.4,1.7S215.5,40.7,215.5,40.6 M189.5,39.5c-0.2-0.3-0.4-0.7-0.6-2.6c-0.1,1.7,0.1,2.8,0.5,3.3
		c0.3-0.3,0.4-0.8,0.3-1.2C189.8,39,189.7,39.4,189.5,39.5 M190.2,38.6c-0.2-0.4-0.6-0.9-0.9-3c-0.1,1.9,0.4,3.1,0.9,3.6
		c0.3-0.3,0.4-0.9,0.3-1.3C190.5,37.9,190.4,38.4,190.2,38.6 M190.9,37.7c-0.3-0.3-0.8-1.1-1.1-2.9c-0.1,1.5,0.6,3.1,1.1,3.6
		c0.3-0.3,0.4-1,0.1-1.9C191.1,36.5,191.1,37.1,190.9,37.7 M191.7,36.4c-0.3-0.3-0.7-0.8-1.2-2.5c0.1,1.5,0.8,2.9,1.3,3.3
		c0.3-0.4,0.3-1.5-0.1-2.3C191.7,34.9,191.8,35.8,191.7,36.4 M188.8,40.3c0,0-0.3-0.5-0.4-1.9c-0.2,1.5,0.4,2.4,0.4,2.4
		s0.4-0.3,0.4-0.7C189,40.2,188.8,40.3,188.8,40.3 M188.1,40.9c0,0-0.3-0.5-0.4-1.7c-0.3,1.4,0.2,2.2,0.2,2.2s0.4-0.2,0.3-0.6
		C188.3,40.8,188.1,40.9,188.1,40.9 M192.5,42c0,0-0.3-0.1-0.5-0.4c0.1,0.5,0.3,0.7,0.7,1c0.2-0.8,0.4-1.4-0.7-3.6
		C192.8,41.3,192.5,42,192.5,42 M193.2,40.1c0,0-0.3-0.1-0.5-0.3c0.2,0.7,0.8,1,0.8,1s0.5-1.3-0.7-3.1
		C193.5,39.6,193.2,40.1,193.2,40.1 M198.6,49.3c0.1-1-0.4-1.8-0.5-2.2c-0.1,0.1-0.1,0.4-0.1,0.4c-0.4-0.4-0.4-1-0.5-1.3
		c-0.1,0.7-0.3,1-0.4,1.3c0.1,0,0.3-0.1,0.4-0.2C197.6,48.2,198.3,48.4,198.6,49.3 M205.7,47.5c0,0,0-0.3-0.1-0.4
		c-0.1,0.4-0.6,1.3-0.5,2.2c0.2-0.9,0.9-1.1,1.1-1.9c0.1,0.1,0.3,0.1,0.4,0.2c-0.1-0.3-0.3-0.7-0.4-1.3
		C206.1,46.5,206.1,47.2,205.7,47.5 M200.4,46.6c-0.1-0.3-0.3-1.4-0.7-1.9C199.5,45.5,200.1,46.2,200.4,46.6 M203.1,47.7
		c0.2-0.5,0.6-0.9,0.6-2.4C203.3,45.7,203.1,47.1,203.1,47.7 M202.3,48.2c0.2-0.6,0.2-1.3,0-1.6C202,47.2,202,47.8,202.3,48.2
		 M201.6,46.5c0.2-0.7,0.2-1.5-0.1-1.8C201.3,45.3,201.3,45.9,201.6,46.5 M206.3,40.5c-0.4,0.5-0.5,1.8-0.6,2.2
		C205.8,42.5,206.5,40.8,206.3,40.5 M206.3,38.5c0,0,0.7-1.2,0.3-1.8C206.2,36.7,206.3,38.5,206.3,38.5 M204.4,41.3c0,0,1.1-1,1-2.3
		c-0.3,0.9-1,1.2-1,1.2c0,0-0.4-0.2-0.6-0.8C203.7,40.7,204.4,41.3,204.4,41.3 M206.5,39.9c0.3-0.4,0.7-1.1,0.4-1.5
		C206.7,38.8,206.6,39.3,206.5,39.9 M203.2,44.9c0.2-0.4,0.7-1.2,0.6-2.1C203.3,43.1,203.1,44.3,203.2,44.9 M204.7,43.5
		c0.6-0.8,1-1.7,0.7-2.6C204.8,41.8,204.8,42.7,204.7,43.5 M203.3,40.8c-0.2,0.6-0.4,1-0.9,1.5c-0.2-0.2-0.4-0.4-0.6-0.9
		c-0.1,1,0.5,1.6,0.8,1.8C202.8,43,203.5,42.1,203.3,40.8 M200.6,43.4c-0.1,0-0.7-0.6-0.9-1c0.1,0.6,0.9,1.7,1.3,1.9
		c0.1-0.2,0.6-1.1,0.2-2.6C200.9,42.7,200.8,43.1,200.6,43.4 M196.9,36.4c-0.1-0.5,0.5-1,0.3-1.8C196.6,35.4,196.7,36,196.9,36.4
		 M198.2,42.4c0.4,0.6,0.6,0.9,0.9,1.1c-0.4-0.7-0.8-1.9-1.2-2.2C197.8,41.5,198,42.1,198.2,42.4 M197.9,39.7c-0.2,1,0.8,2,0.8,2
		C198.7,41.7,198.7,40.5,197.9,39.7 M198.6,37.8c0,0.4,0,0.8-0.1,1.3c-0.3-0.1-0.4-0.3-0.6-0.5c0.2,0.6,0.9,1.3,1,1.4
		C199,39.2,199,38.3,198.6,37.8 M198.2,35.1c0.3-1,0.9-1.6,1.1-2.2C198.2,33.6,198,34.7,198.2,35.1 M197.3,39.6
		c-0.1-0.9-0.1-1.5-0.5-2.2C196.6,38.3,197.2,39.5,197.3,39.6 M199.8,36.2c-0.7,0.9,0.4,1.9,0.4,2C200.2,38.2,200.3,36.5,199.8,36.2
		 M200.4,33.8c-1,0.8-0.5,1.5-0.4,1.9C200.2,35,200.3,34.8,200.4,33.8 M201,40.8c0.2-0.4,0.7-1.1,0.4-2.3c-0.1,0.9-0.7,1.3-0.7,1.3
		c0,0-0.3-0.2-0.6-0.7C200.2,40.2,200.6,40.5,201,40.8 M206.2,34c-0.1,0.6,0.6,1.9,0.6,2C206.8,35.9,207.2,34.8,206.2,34
		 M204.8,31.7c-0.1,0.5,0.7,1.2,0.7,1.2C205.5,32.9,205.6,32,204.8,31.7 M206,35.5c-0.2,1.1-0.7,1.5-0.7,1.5c0,0-0.4-0.3-0.7-0.7
		c0,0.9,0.7,1.7,0.7,1.7C205.3,38,206.2,37.2,206,35.5 M203.8,33.4c-0.4,0.4,0,1.3,0.2,2.1C204.2,35.2,204.5,33.8,203.8,33.4
		 M204.1,32.2c0-0.4-0.1-1.1-1-1.2C203.1,31.4,203.8,31.7,204.1,32.2 M203.2,30.5c0.2,0.2,0.9,0.4,1.2,0.7
		C204.3,30.6,203.8,30.3,203.2,30.5 M202.3,33c-0.6,0.7-0.2,1.2-0.2,1.2C202,34.3,202.8,33.4,202.3,33 M203.2,39.5
		c0,0,0.8-0.7,0.9-2.3c-0.4,0.8-0.9,1.2-0.9,1.2c0,0-0.4-0.3-0.8-0.7C202.4,38.7,203.2,39.5,203.2,39.5 M202,35.4
		c-0.7,1.1,0,2.1,0,2.1C202,37.5,202.5,36,202,35.4 M202.3,27.8c0.2,0.2,0.8,0.5,1.1,0.8C203.4,28.1,202.9,27.8,202.3,27.8
		 M202.6,28.4c-0.4-0.4-0.8-0.6-1.1-0.6C201.8,28.2,202.1,28.5,202.6,28.4 M203.9,29.5c0-0.1-0.3-0.5-0.9-0.7
		c0.2,0.2,0.3,0.4,0.3,0.5c-0.1,0.1-0.4,0.1-0.6,0.1C202.9,29.7,203.3,29.7,203.9,29.5 M198.3,28c-0.1,0-0.1,0.2,0.1,0.2
		c0.2,0,0.2-0.2,0.2-0.2S198.4,27.9,198.3,28 M203.7,17.5c-0.2-0.1-0.3-0.2-0.5-0.4c-0.2,0.1-0.4,0.3-0.5,0.4
		c0.2,0.1,0.3,0.2,0.5,0.4C203.4,17.7,203.4,17.6,203.7,17.5 M200.4,27.5c0,0,0.1,0.1,0,0.3c0,0.2-0.1,0.4-0.4,0.5
		c-0.3,0.1-0.7-0.1-0.7-0.5c0-0.1,0-0.2,0.1-0.3c-0.1,0-0.1,0.1-0.2,0.2c-0.1,0.1-0.2,0.1-0.3,0.2c0-0.2,0.2-0.5,0.5-0.6
		c0.4-0.2,1.7-0.2,2.6,0.3c-0.3-0.1-0.6,0-0.9-0.1C200.6,27.5,200.4,27.5,200.4,27.5 M200.2,27.6c0,0-0.3,0-0.4,0
		c0,0.1,0.2,0.2,0.2,0.2c0,0,0.1,0,0.1-0.1C200.3,27.6,200.3,27.6,200.2,27.6 M204.5,20c-2.5-0.1-7.5,0.1-9.9,0.8
		c0,0-0.3-0.6-0.5-0.9c-0.6-0.7-0.9,0.1-0.9,0.1c0.8,0,1,0.5,1,0.5c-0.2,0.4-0.3,0.5-0.8,0.8c-0.1,0.1-0.7,0.4-1.4,0.5
		c-1.5,0.1-1.1-1.5-0.2-2.2c-0.1,0.1-0.7,1-0.3,1.4c0.4,0.5,1.8,0.1,2.1-0.3c-0.2-0.2-0.5-0.2-1-0.2c0-0.2,0.1-0.9,0.9-1.5
		c0.3,0.1,1,0.5,1.3,1.1c2.2-0.6,6.3-0.8,6.5-0.8c0-0.4-0.2-1.8-0.2-1.9c0-0.2,0.1-0.3,0.3-0.4c0.2,0.3,0.3,0.4,0.7,0.6
		c-0.1,0.2-0.3,0.3-0.5,0.4c0,0.3,0,0.8,0.1,1c0.4-0.2,0.9-0.4,1.5-0.5c0.2-0.1,0.5-0.1,0.7-0.1c0.2,0,0.5,0.1,0.6,0.2
		c0.1,0.1,0.2,0.3,0.2,0.5C204.7,19.4,204.6,19.8,204.5,20 M204,19.1c-0.3-0.5-1.5-0.1-2.2,0.3c0.4,0,0.8,0,1.3,0c0.2,0,0.7,0,1,0
		C204,19.2,204,19.2,204,19.1 M193.4,21.8c-0.1,0-0.3-0.1-0.5-0.1c-0.1,0.2-0.2,0.4-0.3,0.5c0.2,0.1,0.4,0.1,0.6,0.2
		c0.1-0.1,0.2-0.2,0.2-0.4c0.1,0,0.3,0.1,0.4,0.1c0.1-0.2,0.2-0.3,0.3-0.5c-0.2-0.1-0.4-0.1-0.6-0.2
		C193.6,21.5,193.5,21.7,193.4,21.8 M212.1,19.9c0.5,0,1,0.1,1.2-0.2c-0.3-0.1-0.6-0.2-0.7-0.3c0.1-0.1,0.3,0,0.4,0.1
		c0.1-0.1,0.1-0.1,0.2-0.2c-0.3-0.3-0.8-0.1-0.9,0.2c0.1,0,0.2,0.1,0.3,0.2C212.4,19.7,212.2,19.9,212.1,19.9 M211.8,20.8
		c-0.2,0.5-0.4,0.9-0.6,1.4c0.1,0.1,0.3-0.1,0.5-0.1c0.6-0.4,1.1-1.4,1.3-2c0,0-0.4,0.1-0.6,0.2C212.1,20.4,212,20.4,211.8,20.8
		 M207.1,21.1c0.2,0.2,0.3,0.3,0.4,0.4c0.2-0.1,0.3-0.2,0.6-0.3c-0.2-0.2-0.3-0.3-0.5-0.4C207.5,20.8,207.3,21,207.1,21.1
		 M211.3,20.6c-0.1,0.3-0.4,0.6-0.5,0.8c-0.9-0.3-2.8-0.8-3.8-0.9c-0.3,0.3-0.7,0.7-1.2,0.8c-0.7-0.1-1.1-0.3-1.5-0.4
		c0.3,0,0.3,0,0.5,0c0.6,0,1.2-0.2,1.6-0.5c-0.9-0.1-1.1-0.4-0.7-1c0.2-0.3,0.5-0.7,1-0.6c0.4,0.1,0.5,0.6,0.4,1
		c1.1,0.1,2.4,0.5,3.5,0.9c0.1-0.3-0.1-0.4-0.2-0.7c0.2-0.2,0.4-0.4,0.6-0.5C211.3,19.7,211.4,20.2,211.3,20.6 M206.3,19.2
		c0,0-0.2,0.1-0.3,0.3c0.1,0.1,0.2,0.2,0.5,0.2c0,0,0.1,0,0.1,0C206.8,19.5,206.5,19.1,206.3,19.2 M194.9,21.4
		c0.2,0.1,0.4,0.2,0.6,0.3c0.2-0.2,0.2-0.3,0.4-0.5c-0.2-0.1-0.4-0.2-0.6-0.3C195.2,21,195,21.3,194.9,21.4 M221,61.2
		c-1.4,2.7-3.1,4.5-5.5,6c-3.5,2.2-7.1,1.7-8.3,1c0,0,0.1,0.2,0.1,0.3c0,0.1,0.1,0.2,0.1,0.3c0.5,1.3,0.2,2.6-1.5,2.7
		c-0.4,0.1-0.9,0.1-1.5,0.3c-0.4,0.2-0.9,0.5-1.4,1c-0.2,0.2-0.7,0.8-0.9,1.2v0v0c-0.2-0.4-0.7-1-0.9-1.2c-0.5-0.5-1-0.8-1.4-1
		c-0.6-0.3-1.1-0.3-1.5-0.3c-1.7-0.2-2-1.5-1.5-2.8c0-0.1,0.1-0.2,0.1-0.3l0.1-0.3c-0.9,0.5-3,0.9-5.5,0.2c-0.1,0-0.2,0-0.2-0.1
		c-2-0.5-3.8-1.5-5.3-2.9c-1.8-1.7-2.8-3.5-3.2-4.2c-3.3-6.8-2.8-17-2.9-18c-0.1-11.7,2.5-18.3,4.7-21.4c-0.7-0.9-1.1-1.4-1.1-1.4
		c-0.2-0.2-0.6-0.6-1.4-0.7c-0.2-1.5-0.8-3.4-0.8-3.4s1.5,1.1,3,1.7c-0.1,0.8,0.1,1.2,0.3,1.5c0,0,0.3,0.5,0.9,1.2
		c1-1.2,2-2.1,3.7-3.1c0.4-0.2,0.8-0.4,1.3-0.6c0-0.6,0.2-1.2,0.6-1.6c0-0.4,0.3-0.8,0.7-0.9l0,0c0.4-0.1,0.9,0.1,1.2,0.3
		c0.6,0.1,1.2,0.4,1.7,0.9c1.4-0.3,2.9-0.5,4.7-0.6c0.2-0.9,0.8-1.5,1.5-1.8c0.2-0.4,0.7-0.7,1.1-0.8h0h0h0c0.4,0,1,0.4,1.1,0.8
		c0.7,0.3,1.2,1,1.5,1.8c1.8,0.1,3.3,0.3,4.7,0.6c0.4-0.5,1-0.8,1.7-0.9c0.3-0.3,0.8-0.4,1.2-0.3l0,0c0.4,0.1,0.7,0.6,0.7,0.9
		c0.4,0.4,0.6,1,0.6,1.6c0.5,0.2,0.9,0.4,1.3,0.6c1.6,1,2.8,2,3.8,3.1c0.6-0.8,0.9-1.3,1-1.3c0.2-0.3,0.4-0.8,0.3-1.5
		c1.4-0.6,3-1.7,3-1.7s-0.6,1.8-0.8,3.4c-0.8,0.1-1.2,0.5-1.4,0.7c0,0-0.5,0.6-1.3,1.6c2.2,3.2,4.8,9.7,4.7,21.3
		C223.8,44.1,224.3,54.4,221,61.2 M219.9,24.5c-1.4,0.3-2.3,0.3-2.8,0.3c-0.4,0.8-0.6,1.5-0.6,2.8c-0.6-0.2-0.9-0.3-1.2-0.7
		c-0.4,0.5-0.6,0.8-1,1.4c3.7,6.6,3.7,12.6,3.7,14.3c2.9-1.6,4.7-3.2,5-3.5C222.7,33,221.8,28.5,219.9,24.5 M214.1,42.8
		c-0.1,0.7-0.1,1.3,0.1,1.9c0.3-0.4,0.6-0.8,0.8-1.6c0,0.6,0.2,1.3,0.3,1.6c0.4-0.6,0.7-3.2,0.7-3.2s0,0.1,0.2,0.1
		c0.2-0.9,0.1-2.8-0.1-3.7c-0.3-1.6-1-3.4-2.9-5.7c-1-1.2-1.8-0.6-2.6,0.3c-1.3,1.5-1.6,2.1-3.2,2.4c0,0,0,0,0,0
		c-0.2,0,0,0.1,0.3,0.1c1.9,0,2.5-1.3,3.1-1.9c0.4-0.4,0.9-0.8,1.3-0.6c0.2,0.1,0.7,0.7,0.1,2.2c0-0.3-0.1-0.6-0.2-0.7
		c-0.3,1-0.6,1.8-1,2.5c-0.1-0.2-0.1-0.3-0.1-0.5c-0.2,1.2-1.3,2.5-1.4,4.2c-0.1-0.2-0.2-0.3-0.2-0.8c-0.8,1.5-1.7,4.2-1.1,5.6
		c0-1.4,0.8-3.4,1.3-4c-0.6,1.8-1.2,4-0.7,5.3c0-1.1,0.7-3,1.2-3.8c-0.8,2.9-1.1,4.4-0.2,5.6c-0.2-1.1,0.3-2.8,0.9-4.1
		c-0.4,2.3-1,4.3,0.1,5.3c-0.2-1.5,0.4-3.5,0.7-4.2c-0.4,2.2-0.7,4.3,0.1,5.4c0-0.8,0.1-1.6,0.3-2.3c0.2-1,0.5-1.9,0.5-1.9
		s-0.2,1.5-0.3,3.4c0,0.3,0,0.6,0,0.9c0,0.4,0,0.8,0.1,1.2c0.1,0.3,0.2,0.7,0.3,0.9c0.2-2.5,0.5-4.7,0.8-5.7c0,0-0.3,2.3-0.5,5.9
		c0,0.1,0,0.3,0,0.4c-0.2,5.1,0.5,6.8,0.7,7.3c0,0,0-0.1-0.1-0.8c0-0.6,0-0.5,0-1.1c0-0.2-0.5-1.1-0.4-2.4c0-0.8,0.1-1.5,0.2-2.3
		c0.1-0.7,0.1-1.3,0.2-2c0.1-0.6,0.1-1.1,0.2-1.7c0.1-0.8,0.3-1.7,0.4-2.5c0.1-0.7,0.1-0.1,0,0.1c-0.1,0.7-0.2,2.4-0.3,4
		c-0.1,1.2-0.4,3.7-0.3,4.9c0.1,1,0.3,1.5,0.3,1.6c-0.1,2,0.1,2.8,0.5,3.6c0,0,0.2-0.7,0.4-1.6c0,0.1-0.1,0.1-0.2,0.2
		c-0.3-0.7-0.4-1.8-0.2-3c0-0.2-0.3-0.5-0.3-1.4c0-1.5,0.2-2.9,0.4-4.4c0.1-0.5,0.1-1,0.2-1.4c0-0.3,0.1-0.6,0.1-0.9
		c0.1-0.5,0.1-0.9,0.2-1.4c0-0.1,0-0.1,0-0.2c0,0,0,0.3,0,0.8c-0.2,2-0.6,7-0.6,7.4c0,1,0.2,1.3,0.2,1.5c-0.1,0.7,0,2,0.1,2.4
		c0.1-0.3,0.2-0.8,0.2-0.8s0.3-2,0.6-5c0-0.4,0.1-0.9,0.1-1.3c0-0.4,0.1-0.9,0.1-1.3c0-0.5,0.1-1,0.1-1.6c0-0.2,0-0.4,0.1-0.7
		c0.1-1.4,0.3-2.9,0.4-4.3c0,0,0.2-2.2,0.2-2.9c-0.1,0-0.1-0.1-0.1-0.1s-0.3,2.7-1,3.7c-0.2-0.2-0.4-1.2-0.4-1.6
		c-0.2,0.5-0.8,1.3-0.8,1.3s-0.2-0.5-0.2-1.4c-0.2,0.3-0.4,0.6-0.8,0.8c-0.1-0.3-0.3-0.7-0.3-1.5c-0.1,0.2-0.3,0.4-0.6,0.5
		c-0.1-0.2-0.6-1,0.3-3.9c-0.4,2.6-0.1,3-0.1,3.2c0.1-0.1,0.3-0.2,0.4-0.3c0-0.5,0.1-1.1,0.3-1.9c-0.1,2.1,0,2.8,0.2,3.2
		C213.4,44.1,213.7,43.7,214.1,42.8 M207.7,43.7c0.2-2.7,0.7-4.4,1-5.8C207.3,39.4,207.5,43.1,207.7,43.7 M207.9,37.7
		c0.5-1.4,0.1-2.1-0.2-2.2C207.7,36.1,207.9,36.4,207.9,37.7 M209.1,38.8c0.4-1.3,0.6-2,0.6-3C209.3,36.2,209.1,37.5,209.1,38.8
		 M210.3,36.2c0.1-0.5,0.1-1,0-1.5c-0.2,0.5-0.4,1.5-0.4,2.4C210.1,36.8,210.3,36.5,210.3,36.2 M207,46.4
		C207,46.4,207,46.4,207,46.4C207.1,46.4,207.1,46.4,207,46.4C207.1,46.4,207.1,46.4,207,46.4c0.1-0.1,0.1-0.1,0.2,0
		c0.1,0,0.1,0.1,0.2,0.1c-0.1-0.2-0.1-0.6-0.2-1c0-0.4,0-0.8-0.2-1.2c0,0,0,0,0-0.1c-0.1,0.2-0.2,0.4-0.4,0.6
		c-0.2,0.3-0.4,0.6-0.5,0.9l0,0.1l-0.1-0.1c0.1,0.1-0.3-0.4-0.3-0.4c-0.2,0.6-1.2,1.9-1.4,2.2l0,0c0,0-0.4,0.6-0.6,2.1
		c-0.1,1.4,0,2.2,0,2.2l0.4-0.4c0,0,0,0.4,0,0.8c0,0.3-0.1,0.6-0.1,0.6s0.7,0.1,1.3-0.6l0.1,0.3c0.1,0.3,0.2,0.6,0,0.7
		c0,0-0.4,0.3-0.3,0.6c0,0.1,0.1,0.2,0.2,0.3l0,0l0,0c0,0.2,0.1,0.3,0.2,0.3c0-0.1,0-0.2,0-0.3c0.1-0.2,0.2-0.2,0.3-0.3
		c0.1,0,0.2,0,0.2,0s0.1,0.8,0.2,1.2c0.1,0.3,0.1,0.7,0.2,1.1c0,0.1,0,0.2,0,0.3c0,0.3,0.2,0.3,0.3,0.3c0.1,0,0.3,0,0.4,0l0,0l0,0
		c-0.2,0.1-0.2,0.1-0.2,0.2c0,0.1,0.1,0.3,0,0.5l0,0c0.3-0.2,0.3-0.5,0.3-0.7l0,0l0,0c0.2-0.1,0.2-0.6-0.2-1.4
		c-0.2-0.4-0.2-0.9-0.1-1c0,0,0,0,0,0c0.1,0,0.1,0,0.3,0.2c0.1,0.2,0.2,0.3,0.4,0.5c0.1,0.2,0.2,0.3,0.2,0.5c0,0.1,0,0.1,0,0.1
		c0,0-0.1,0-0.1,0c-0.1,0-0.2,0-0.2,0c0.1,0.1,0.4,0.4,0.5,0.3c0.2-0.3,0,0.2,0.4,0.2c0.3,0,0.4-0.2,0.5-0.5c0-0.1,0-0.2,0-0.3
		c-0.1-0.3-0.3-0.6-0.4-0.7l-0.1-0.1c-0.7-0.7-0.6-0.9-0.6-1c0.1-0.1,0.1-0.1,0.3-0.2c0.3,0,0.5,0,0.6,0c0.3,0.1,0.7,0.1,0.7,0.3
		c0,0,0,0.1-0.1,0.1c-0.1,0-0.2,0.1-0.3,0.1c0,0,0.1,0.1,0.2,0.2c0.1,0.1,0.6,0.2,0.7,0l0-0.1c0.1,0,0.3,0,0.3-0.2
		c0-0.1-0.1-0.3-0.3-0.4c-0.2-0.1-0.6-0.3-1-0.4c-0.1,0-0.3-0.1-0.5-0.1l-0.8-0.2c0,0-0.4-0.1-0.6-0.2c-0.1,0-0.1-0.1-0.2-0.1
		c-0.1-0.1-0.2-0.2-0.3-0.3c-0.1-0.1-0.2-0.4-0.3-0.8c0.1,0.1,0.3,0.2,0.6,0.3c0-0.1,0-0.5,0-0.7c0.1-1.3,0.2-2.1,0.2-2.1
		s0.2,0.2,0.3,0.3c0-0.2,0-0.8-0.1-1.3c0,0,0,0,0,0C207.3,47.6,207.2,47,207,46.4 M208,52.7l0.6,0.2c0.1,0,0.2,0.1,0.3,0.1
		c0.1-0.3,0.2-0.6,0.1-0.9c0-0.3,0.8,0.4,1.3,0.9c0.2,0.2,0.3,0.1,0.1,0c-0.5-0.7-1.6-1.4-1.8-1.6c-0.5-0.3-0.7-0.2-0.6,0
		C208.2,51.7,208.2,52.2,208,52.7 M208.9,57.8c0.6,0.7,1.5,2.1,1.9,2.5c0.8,0.8,1.1,0.9,1.7,0.9c-0.2-0.5-0.4-1.1-1.3-2.5
		c-0.5-0.8-1.3-2-2.1-2.9c0,0.1,0,0.3-0.1,0.4c0,0,0,0.1,0,0.1c-0.1,0.1-0.1,0.2-0.2,0.2c-0.1,0.1-0.3,0.1-0.5,0.1
		c-0.2,0-0.3-0.1-0.4-0.2c-0.1,0-0.2,0-0.3-0.1c0,0.3,0,0.5-0.2,0.6c0,0.2,0,0.5-0.3,0.8c0,0,0,0.1,0,0.1c0.2,0.3,0.1,0.5,0,0.6
		c-0.1,0.1-1,1.1-1.2,1.3c-0.2,0.2-0.5,0-0.5,0l-0.2-0.1c0,0-0.2,0.2-0.4,0.4c0,0,0,0,0.1,0v0c0.3,0.3,0.7,0.5,1,0.6
		c0.3,0.1,1.3,0.5,2,0.8c-0.2-0.5-0.3-1.1-0.5-1.6c0.2,0.2,0.6,1.1,1.1,1.8c0,0,0.1,0,0,0c0.5,0.2,1.2,0.6,1.8,0.9
		c0-0.2-0.1-0.3-0.1-0.3s-0.5-0.5-0.8-1c-0.7-1-1.1-2-1.3-2.7c0.8,1.2,1,1.5,1.3,1.9c1,1.3,2,1.9,2.4,1.9c-0.1-0.7-0.4-0.9-0.4-0.9
		s-0.5-0.4-1-1.1c0.1,0.2,0.2,0.3,0,0c-0.2-0.3-0.1-0.2,0,0C209.9,60,209.4,59,208.9,57.8 M206.3,64.2c1.3,0.2,4.1,0.1,5.1-0.3
		c-0.4-0.3-2-1.3-4.4-2.3c-0.5-0.2-1.2-0.5-1.6-0.8c-0.3-0.2-0.5-0.3-0.7-0.6c-0.8-0.7-2.9-3-3.3-3.4l-1.4,1.3c0,0,3.7,3.7,4.7,4.2
		c1.2,0.7,4.7,1.4,4.7,1.4s-2.6-0.2-4.7-1c-1.2-0.5-5-4.3-5-4.3l-0.9,0.9c0.5,0.5,1.5,1.7,3.2,3C202.9,63.4,204.3,64,206.3,64.2
		 M202.2,63.4c0,0.7,0.6,1.4,0.7,1.6c0,0,0.2-0.3,0.3-1C202.8,63.8,202.4,63.6,202.2,63.4 M195.8,58.8c-0.2,0.7-0.7,1.7-1.3,2.7
		c-0.3,0.5-0.8,1-0.8,1s0,0.1-0.1,0.2l-0.1,0.1l0.6-0.3c0.1,0,0.2-0.1,0.3-0.1c0.4-0.2,0.8-0.4,1.2-0.6c0.4-0.7,0.9-1.6,1-1.8
		c0,0.2-0.1,0.7-0.6,1.6l0.3-0.1c0.6-0.2,1.2-0.4,1.5-0.6c0.4-0.2,0.6-0.4,0.8-0.5c0,0,0.1-0.1,0.2-0.2c0,0-0.5-0.5-0.5-0.5
		l-0.2,0.1c0,0-0.3,0.3-0.5,0c-0.2-0.2-1.1-1.2-1.2-1.3c-0.1-0.1-0.2-0.3,0-0.6c0,0,0,0,0,0c-0.3-0.3-0.3-0.6-0.3-0.8
		c-0.1-0.1-0.2-0.4-0.2-0.6c-0.1,0.1-0.2,0.1-0.3,0.1c-0.1,0.1-0.2,0.2-0.4,0.2c0,0,0,0-0.1,0c-0.2,0-0.3,0-0.4-0.1
		c-0.1-0.1-0.1-0.1-0.2-0.3c0,0,0,0,0,0c-0.5,0.6-1,1.3-1.8,2.4c-0.9,1.4-1.1,1.9-1.3,2.5c0.6,0,0.9-0.1,1.7-0.9
		c0.4-0.4,1.3-1.8,1.9-2.5c-0.5,1.2-1,2.1-1.5,2.8c-0.5,0.7-1.1,1.2-1.1,1.2s-0.2,0.1-0.4,0.9c0.4,0,1.4-0.6,2.4-1.9
		C194.8,60.3,195,59.9,195.8,58.8 M195.3,54.9c-0.3,0.3-0.5,0.6-0.5,1.1c0,0.3,0.2,0.5,0.4,0.5c0.4,0,0.2-0.5,0.4-0.2
		c0.1,0.1,0.4-0.2,0.5-0.3c-0.2,0-0.4,0.1-0.4-0.2c0-0.2,0.2-0.3,0.3-0.5c0.1-0.1,0.4-0.7,0.6-0.7c0.1,0.1,0,0.6-0.1,1
		c-0.4,0.8-0.4,1.3-0.2,1.4l0,0l0,0c0,0.3,0,0.6,0.3,0.7l0,0c-0.1-0.3,0-0.4,0-0.5c0,0,0-0.1-0.2-0.2l0,0l0,0c0.1,0,0.3,0,0.4,0
		c0.1,0,0.3,0,0.3-0.3c0-0.1,0-0.2,0-0.3c0-0.4,0.1-0.8,0.2-1.1c0.1-0.3,0.2-1.2,0.2-1.2s0.1,0,0.2,0c0.1,0,0.2,0.1,0.3,0.3
		c0,0.1,0,0.1,0,0.3c0.1,0,0.2-0.1,0.2-0.3l0,0l0,0c0.1-0.1,0.2-0.2,0.2-0.3c0-0.3-0.3-0.6-0.3-0.6c-0.2-0.2-0.1-0.5,0-0.7l0.1-0.3
		c0.1,0.1,0.2,0.3,0.4,0.3c0.5,0.3,1,0.3,1,0.3s-0.1-0.3-0.1-0.6c0-0.4,0-0.8,0-0.8l0.4,0.4c0,0,0.2-0.7,0.1-2.1
		c-0.2-1.6-0.5-2.2-0.6-2.4c-0.1-0.4-0.3-0.7-0.3-0.7s0,0.2-0.3,0.4c-0.3-0.4-0.8-1.1-1-1.6c-0.1,0.1-0.2,0.3-0.3,0.4l-0.1,0.1
		l0-0.1c-0.1-0.4-0.3-0.7-0.5-0.9c-0.1-0.2-0.3-0.4-0.4-0.6c-0.1,0.4-0.2,0.9-0.2,1.3c0,0.4,0,0.8-0.2,1c0.1,0,0.1-0.1,0.2-0.1
		c0.1-0.1,0.1-0.1,0.2-0.1l0,0l0,0c0,0,0,0,0,0.1c-0.1,0.5-0.2,1.2-0.3,1.5c0,0.6,0,1,0,1.3c0,0,0.4-0.2,0.4-0.2s-0.2,0.8-0.1,2.1
		c0,0.2,0,0.6,0,0.7c0.2,0,0.5-0.2,0.6-0.2c-0.1,0.3-0.2,0.7-0.3,0.8c-0.3,0.4-1,0.6-1.5,0.7c-0.6,0.2-1.3,0.3-1.8,0.6
		c-0.2,0.1-0.4,0.3-0.3,0.4c0,0.2,0.3,0.2,0.3,0.2l0,0.1c0.1,0.2,0.6,0.1,0.7,0c0.1-0.1,0.2-0.1,0.2-0.2c0,0-0.2,0-0.3-0.1
		c0,0-0.1-0.1-0.1-0.1c0-0.3,1.1-0.3,1.2-0.3c0.2,0,0.2,0,0.3,0.2C195.9,54,195.9,54.2,195.3,54.9 M195.6,51.3
		c0.2-0.3-0.1-0.3-0.6,0c-0.3,0.2-1.3,0.9-1.8,1.6c-0.1,0.2-0.1,0.3,0.1,0c0.5-0.5,1.3-1.2,1.3-0.9c0,0.3,0,0.6,0.2,0.9
		c0.1,0,0.2,0,0.2-0.1l0.7-0.2C195.4,52.2,195.4,51.7,195.6,51.3 M194.5,41c0.4,0.6,1.3,2.6,1.3,4c0.5-1.4-0.3-4.1-1.1-5.6
		c0,0.4-0.1,0.6-0.2,0.8c-0.2-1.7-1.2-3-1.4-4.2c0,0.2-0.1,0.4-0.1,0.5c-0.4-0.7-0.7-1.5-1-2.5c-0.1,0.1-0.2,0.4-0.2,0.7
		c-0.5-1.5,0-2.1,0.1-2.2c0.4-0.2,0.9,0.1,1.3,0.6c0.6,0.6,1.2,1.9,3.1,1.9c0.3,0,0.4-0.1,0.3-0.1c0,0,0,0,0,0
		c-1.6-0.3-1.9-0.9-3.2-2.4c-0.8-0.9-1.7-1.4-2.6-0.3c-1.9,2.2-2.5,4.1-2.9,5.7c-0.2,0.9-0.3,2.8-0.1,3.7c0.2-0.1,0.2-0.1,0.2-0.1
		s0.2,2.6,0.7,3.2c0.1-0.3,0.3-0.9,0.3-1.6c0.2,0.8,0.5,1.2,0.8,1.6c0.2-0.6,0.2-1.2,0.1-1.9c0.4,0.9,0.7,1.3,0.9,1.5
		c0.2-0.4,0.3-1.1,0.2-3.2c0.2,0.8,0.2,1.4,0.3,1.9c0.1,0.1,0.3,0.2,0.4,0.3c0.1-0.2,0.3-0.5-0.1-3.2c0.9,2.9,0.4,3.6,0.3,3.9
		c-0.3-0.2-0.5-0.4-0.6-0.5c0,0.9-0.1,1.2-0.3,1.5c-0.3-0.2-0.5-0.4-0.8-0.7c0,0.9-0.2,1.4-0.2,1.4s-0.7-0.7-0.8-1.3
		c0,0.3-0.2,1.4-0.4,1.6c-0.7-1-1-3.7-1-3.7s-0.1,0-0.1,0.1c0,0.7,0.1,1.7,0.2,2.9c0,0,0,0,0,0c0.1,1.4,0.3,2.9,0.4,4.3
		c0.3,3.3,0.7,6.6,1.1,9.8c0,0,0.1,0.5,0.2,0.8c0.1-0.3,0.1-1.6,0.1-2.4c0-0.2,0.3-0.5,0.2-1.5c0-0.4-0.5-5.5-0.6-7.4
		c0-0.2,0-0.8,0-0.8c0,0.1,0,0.1,0,0.2c0.2,0.7,0.3,1.5,0.4,2.3c0.1,0.4,0.1,0.9,0.2,1.4c0.2,1.5,0.4,2.9,0.4,4.4
		c0,0.9-0.3,1.2-0.3,1.4c0.2,1.2,0,2.3-0.2,3c-0.1,0-0.2-0.1-0.2-0.2c0.2,0.9,0.4,1.6,0.4,1.6c0.3-0.8,0.5-1.6,0.5-3.6
		c0-0.2,0.3-0.6,0.3-1.6c0-0.3,0-1.3-0.1-2.5c-0.2-2.1-0.3-4.3-0.5-6.4c0-0.1,0-0.4,0-0.4c0,0.1,0,0.2,0.1,0.3
		c0.6,2.8,0.8,5.6,1,8.4c0.1,1.3-0.4,2.2-0.4,2.4c0.1,0.6,0.1,0.6,0,1.1c0,0.7-0.1,0.8-0.1,0.8c0.2-0.5,0.9-2.1,0.7-7.3
		c0-0.1,0-0.3,0-0.4c-0.2-3.6-0.5-5.9-0.5-5.9c0.3,1,0.6,3.2,0.8,5.7c0,0,0-0.1,0.1-0.1c0.4-1,0.4-1.9,0.4-2.9
		c-0.1-1.9-0.3-3.4-0.3-3.4c0,0,0,0.1,0.1,0.2c0.1,0.2,0.2,0.8,0.4,1.7c0.1,0.7,0.2,1.3,0.3,2c0,0.1,0,0.2,0,0.3
		c0.7-1.1,0.4-3.2,0.1-5.4c0.3,0.7,0.9,2.7,0.7,4.2c1.1-1,0.5-3,0.1-5.3c0.6,1.4,1.1,3,0.9,4.1c0.9-1.1,0.5-2.6-0.2-5.6
		c0.5,0.8,1.1,2.6,1.2,3.8C195.7,45,195,42.8,194.5,41 M204.1,47.5c0,0,0.5-0.4,0.6-1.9c0.1,0.1,0.3,0.2,0.3,0.4
		c0.3-0.4,0.9-2.3,0.9-3c0.2,0.1,0,0,0.2,0.2c0.2-0.3,0.5-1.4,0.6-2.9c0.1,0,0.2,0,0.2,0.1c0.1-0.7,0.2-1.8,0.2-2.6
		c0-0.7,0-2.1-0.3-2.9c-0.3-0.8-0.4-1.2-0.9-2c0,0-0.2,0.1-0.2,0.2c-0.1-0.4-0.5-1.3-0.7-1.7c-0.4-0.9-0.6-1.4-1.1-1.7
		c0.2,0,0.3,0.1,0.5,0c-0.3-0.3-0.4-0.5-0.7-0.7c0.1-0.1,0.3-0.1,0.6,0c-0.4-0.4-0.6-1-1.8-1.5c0.2,0,0.4,0,0.6,0
		c-0.1-0.2-0.5-0.6-1.1-0.8c-1.2-0.2-2.8-0.3-3.6,0.6c-0.1,0.1-0.3,0.1-0.4,0.2c-0.1,0-0.2,0.1-0.2,0.1c-0.1,0.1-0.2,0.2,0.1,0.6
		c-0.3,0-0.4-0.4-0.5-0.3c-0.1,0.1-0.2,0.2-0.4,0.4c-0.1,0.2-0.2,0.5-0.2,0.7c0,0,0.3,0.2,0.4-0.2c0-0.1,0.5-0.2,0.7-0.2
		c0.3,0,0.5,0.1,0.8,0c-0.1,0-0.5,0.1-0.6,0.2c-0.1,0-0.2,0.2,0,0.2c0.1,0,0.2-0.1,0.4-0.1c0.1,0,0,0.2,0.1,0.3c1-0.2,1,0.8,2,0.6
		c-0.5-0.4-0.9-1-1.3-1.2c1,0.2,1.6,1.1,2.6,1.1c0-0.1,0-0.1-0.1-0.3c0.4,0,0.6,0.3,0.7,0.3c-0.1,0.1-0.5,0.3-0.9,0.3
		c0.1,0.1,0.5,0.2,0.6,0.2c-0.2,0.2-0.5,0.3-1,0.2c-0.2,0.2-0.4,0.5-1.1,0.9c0-0.2,0-0.2,0-0.3c-0.5,0.3-0.8,0.8-1.1,0.9
		c0.1-0.2,0.2-0.5,0.3-0.6c-1.2,1.1-2.4,2.2-2.8,3c-0.5,0.9-0.6,1.8-0.6,3.3c0,0.8,0.4,3.1,0.5,3.6c0.1,0,0.2-0.1,0.3-0.1
		c0.3,1.7,1.2,4.1,1.6,4.9c0.1-0.2,0.1-0.3,0.3-0.4c0.1,0.5,0.3,1,0.7,1.3c0-0.3,0.1-0.5,0.2-0.6c0.1,0.3,0,1.4,0.6,1.9
		c0-0.3,0.1-0.5,0.1-0.9c0.1,0.3,0.1,0.7,0.3,1.1c0.2,0.4,0.4,0.8,0.6,0.9c0-0.8,0.1-0.8,0.1-1.1c0,0.1,0.3,0.4,0.5,1.4
		c0.6-0.5,0.8-2,0.8-2c0,0,0.2,0.2,0.3,0.6c0.5-0.5,0.7-1.3,0.8-1.8C204.1,46.9,204.2,47.3,204.1,47.5 M204.7,55.4
		c0.7,0,0.9,0,1.2,0c0-0.1,0-0.2,0-0.2c0-0.1,0-0.1,0-0.2c0,0,0,0,0,0c-0.2,0.1-0.7,0.2-1.4,0.1c-0.3-0.1-0.3-0.1-0.6-0.1
		c-0.2-0.1-0.6,0.3-0.8,0.6c-0.2,0.2-0.5,0.6-0.7,0.7c0,0,0,0.1,0,0.1c0.2,0.2,3.2,2.9,3.4,3.1c0,0,0.1,0,0.1,0
		c0.1-0.1,0.3-0.3,0.5-0.5c0,0-2.9-2.7-3-2.8c0,0-0.1-0.1,0-0.1c0,0,0.1-0.2,0.2-0.2c0,0,0.1,0,0.1,0c0,0,1,0.9,1,0.9l1.3,1.1
		l0.8,0.7c0.1-0.1,0.1-0.1,0.1-0.1c0.1-0.1,0.1-0.2-0.3-0.6c-0.1-0.1-2-2-2-2C204.3,55.5,204.5,55.4,204.7,55.4 M200.2,56.1
		c0,0-3,2.8-3,2.8c0.2,0.2,0.4,0.4,0.5,0.5c0.1,0.1,0.1,0.1,0.1,0c0.2-0.2,3.1-2.9,3.4-3.1c0,0,0,0,0-0.1c-0.1-0.1-0.4-0.5-0.7-0.7
		c-0.3-0.3-0.6-0.6-0.8-0.6c-0.2,0.1-0.3,0.1-0.6,0.1c-0.6,0.1-1.1,0-1.4-0.1c0,0,0,0-0.1,0c0,0.1,0,0.1,0,0.2c0,0.1,0,0.1,0,0.2
		c0.3,0.1,0.5,0,1.2,0.1c0.2,0,0.4,0.1,0.2,0.3c0,0-1.9,1.9-2,2c-0.4,0.4-0.4,0.5-0.3,0.6c0,0,0,0,0.1,0.1l0.8-0.7l1.3-1.1
		c0,0,0.9-0.9,1-0.9c0,0,0.1,0,0.1,0c0,0,0.1,0.2,0.2,0.2C200.2,56,200.2,56,200.2,56.1 M200.4,49.2c0,0,0-0.2-0.1-0.4
		c-0.1-0.1-0.3-0.3-0.3-0.4c-0.1-0.1-0.1-0.1-0.1-0.1c0,0.1,0,0.4,0.1,0.5c0,0.1,0.1,0.2,0.3,0.3C200.4,49.2,200.4,49.2,200.4,49.2
		 M200.4,54.8c0,0,0.2,0.2,0.3,0.3c0-0.3,0.2-1.3,0.1-1.4C200.5,54.3,200.4,54.7,200.4,54.8 M199.2,54.7c0.1,0,0.4-0.2,0.5-0.2
		c0,0,0.1,0,0.1,0h0c0.1-0.3,0.2-0.8,0.3-1C200.1,53.5,199.4,54.5,199.2,54.7 M201.4,55.8c0-0.4,0-0.8-0.1-1
		c-0.1,0.2-0.2,0.4-0.3,0.7C201.1,55.5,201.4,55.8,201.4,55.8 M201.6,53.1c0,0-0.1-0.5-0.5-0.7C201.2,52.8,201.6,53.1,201.6,53.1
		 M201.9,52.3C201.9,52.3,201.9,52.3,201.9,52.3C201.9,52.3,201.9,52.3,201.9,52.3c0,0,0.1-0.1,0.3-0.3c0.1-0.1,1-0.6,1.1-0.8
		c0.2-0.2,0.2-0.5,0.2-0.5s-0.1,0.2-0.5,0.4c-0.3,0.2-0.9,0.6-1,0.8c-0.1,0.1-0.1,0.2-0.1,0.3c0-0.1,0-0.1-0.1-0.2
		c-0.2-0.4-0.8-0.6-1.2-1c-0.2-0.3-0.2-0.4-0.2-0.4c0,0.3,0,0.5,0.2,0.6c0.1,0.1,0.4,0.4,0.8,0.7C201.8,52.1,201.9,52.3,201.9,52.3
		 M201.5,50.8c0-0.7-0.7-0.7-0.9-1.4C200.6,50.3,201.2,50.4,201.5,50.8 M201.9,53.4c0,0,0.1,0,0.3-0.2c0.2-0.1,0.3-0.2,0.4-0.4
		c0.1-0.2,0.1-0.3,0.1-0.5c0,0,0,0.2-0.3,0.4c-0.1,0.1-0.2,0.2-0.3,0.3C201.9,53.3,201.9,53.4,201.9,53.4 M202.5,53.8
		c0.1,0.4,0.1,1.3,0.1,1.6c0,0,0,0,0,0c0.1-0.1,0.2-0.2,0.3-0.3C202.9,54.9,202.8,54.2,202.5,53.8 M201.9,56.2c0,0,0.2-0.3,0.3-0.4
		c0,0,0,0,0,0c-0.1-0.5-0.2-1.1-0.4-1.4C201.9,54.6,201.9,55.5,201.9,56.2 M201.9,56.5c0,0.2,0,0.4,0,0.5c0,0,0.2-0.2,0.2-0.2
		S202,56.5,201.9,56.5 M202,57.2c0.4,0.4,1,1,1.3,1.4c0.2-0.2,0.4-0.4,0.4-0.4l-1.4-1.3C202.3,57,202.2,57.1,202,57.2 M203.7,58.9
		c0.3,0.3,0.6,0.6,0.9,0.9c0.2-0.2,0.3-0.3,0.4-0.4l-0.9-0.9C204.1,58.6,204,58.7,203.7,58.9 M204,54.6c-0.1-0.2-0.5-0.7-0.9-1
		c0.2,0.5,0.3,0.9,0.4,1c0,0,0,0,0.1,0c0.1,0,0.1,0,0.2,0C203.8,54.5,203.8,54.5,204,54.6C203.9,54.5,204,54.6,204,54.6 M203.7,49.2
		c-0.2,0.3-0.3,0.5-0.6,0.7c0.1-0.2,0.1-0.5,0.1-0.5c-0.1,0.2-0.4,0.5-0.5,0.7c-0.4,0.4-0.5,0.8-0.5,0.8s0.1-0.1,0.6-0.5
		C203.3,50.2,203.5,49.7,203.7,49.2 M197.1,43.5c0,0.5,0.4,1.2,0.8,1.5C197.6,44.2,197.4,44,197.1,43.5 M207.7,34.1
		c0.2,0,0.4,0,0.6-0.1c0.2-0.1,0.2-0.2,0.2-0.2c1.2-1.8,3.5-4.6,5.2-6.8c-3.5-3.4-8.4-3.7-9.7-3.6c-0.3,0-0.7,0.3-0.3,0.8
		c-0.3,0.1-1.3,0-1.7-0.3c-0.4,0.4-1.5,0.5-1.7,0.3c0.4-0.5,0-0.7-0.3-0.8c-1.3-0.1-6.5,0.4-9.7,3.5c1.7,2.3,5.4,7.1,5.4,7.2
		c0.1,0.1,0.2,0.2,0.5,0.2c0,0,0.1,0,0.1,0c0.2,0,0.4-0.1,0.6-0.3c0.4-0.4,0.6-0.6,0.9-1c0.7-0.7,1.4-1.3,1.5-1.4
		c0.3-0.3,0.4-0.5,0.4-0.7c0-0.3-0.2-0.4-0.4-0.5c0,0,0,0.1-0.1,0.1c-0.1-0.1-0.2-0.5-0.2-0.5l-0.1,0.2c0,0-0.3-0.6-0.7-0.6
		c-0.6,0.1-1-0.2-1-0.2c0,0-0.1,0.2,0,0.4c0,0,0,0,0,0c-0.4-0.3-0.5-1.2,0.2-1.8c0.5-0.3,0.6-0.3,0.9-0.5c0.2-0.1,0.3-0.2,0.3-0.3
		c0.2-0.3,0.7-0.5,1-0.5c0.4-0.1,1.2-0.2,2-0.2c0.5,0,0.9,0.1,1.2,0.3c0.2,0.1,1,0.6,1.4,1.2c0.3,0.3,0.7,1.3,1,1.9
		c0.5,1.3,0.5,1.2,0.8,2c0.4,1,0.7,1.5,1.1,2.1C207.3,34,207.4,34.1,207.7,34.1 M213.9,26.6c0.1-0.2,0.2-0.3,0.4-0.5
		c-1.6-1.4-3.9-2.8-6.5-3.4c-1.7-0.4-3.1-0.4-4-0.4c-0.7,0-1.2,0.3-1.2,0.7c-0.4-0.1-0.6-0.6-0.6-0.8c0,0.2-0.3,0.7-0.6,0.8
		c0-0.4-0.5-0.7-1.2-0.7c-0.9,0-2.3,0-4,0.4c-2.6,0.6-4.9,1.9-6.5,3.3c0.1,0.2,0.2,0.3,0.4,0.5c1.4-1.3,3.3-2.4,5.3-3
		c1.7-0.5,3.7-0.7,4.7-0.6c0.8,0,1,0.5,0.9,0.8c0.4,0,0.9-0.3,1.1-0.5c0.1,0.2,0.6,0.5,1.1,0.5c-0.1-0.3,0-0.7,0.9-0.8
		c0.9,0,3,0.1,4.7,0.6C210.5,24.1,212.5,25.3,213.9,26.6 M214.9,24.9c0.2,0.6,0.4,1.3,0.9,1.7c0.1,0.1,0.2,0.1,0.2,0.2l0,0
		c0-1.2,0.4-1.8,0.7-2.5c0,0,0,0,0,0c0.4,0.1,1,0.2,2.2,0c-1.1-0.8-0.9-1.6-1.7-2.5c-0.1-0.1-0.2-0.2-0.3-0.3
		c-0.3-0.2-0.5-0.3-0.7-0.3c-0.2,0-0.3,0.1-0.4,0.2c-0.1,0.1-1.3,1.4-2,2.2C214.5,23.5,214.7,24.1,214.9,24.9 M215.6,20.7
		c-0.8-0.8-2-1.6-3.5-2.3c-3.9-1.7-8.8-1.7-10.2-1.7c0,0,0,0,0,0c0,0,0,0,0,0c-1.4,0-6.3,0-10.2,1.7c-1.5,0.7-2.7,1.5-3.5,2.3
		c0,0,1.8,2,2.2,2.5c0.2,0.3,0.3,0.5,0.2,0.9c2.7-1.8,5.8-2.7,11.2-2.7l0.2,0c5.4,0.1,8.5,1,11.2,2.7c-0.1-0.4-0.1-0.7,0.2-0.9
		C213.9,22.7,215.6,20.7,215.6,20.7 M188,21.3C188,21.3,188,21.3,188,21.3c-0.1-0.1-0.4-0.4-1.1,0.1c-1.2,1-0.8,2-2.1,2.8
		c0.4,0.1,0.8,0.1,1.1,0.1c0.2,0,0.4,0,0.5,0c0.2,0,0.4-0.1,0.6-0.1h0c0.3,0.7,0.7,1.3,0.7,2.5c1.4-0.8,0.9-3.2,2.2-3.2
		C189.3,22.7,188.2,21.4,188,21.3 M189,26.3c1.1,1.4,1.9,2.5,2,2.7c0.4,0.5,1.6,2,1.6,1.8c0-0.1-0.8-1.2-1.3-1.9
		c-0.7-1-1.5-2-2.2-2.9C189.1,26.1,189,26.2,189,26.3 M194.2,35.9c0,1,0.2,1.8,0.6,3C194.8,37.6,194.5,36.2,194.2,35.9 M193.5,34.7
		c-0.1,0.5-0.1,1.1,0.1,1.5c0.1,0.3,0.2,0.6,0.3,0.9C193.9,36.2,193.7,35.2,193.5,34.7 M196.2,43.7c0.2-0.6,0.4-4.2-1.1-5.8
		C195.5,39.4,196,41,196.2,43.7 M192.3,64c1,0.4,3.8,0.4,5.1,0.3c1.7-0.2,3-0.7,4-1.5c-0.3-0.2-0.6-0.6-1-0.9
		c-0.6,0.5-1.1,0.8-1.4,0.9c-2,0.8-4.7,1-4.7,1s3.4-0.8,4.7-1.4c0.2-0.1,0.6-0.4,1.1-0.8c-0.4-0.4-0.9-0.9-1.2-1.2
		c-0.2,0.2-0.4,0.3-0.6,0.5c-0.4,0.3-1.1,0.6-1.6,0.8C194.2,62.7,192.6,63.7,192.3,64 M200.5,64c0.1,0.3,0.3,0.8,0.4,1
		c0,0,0.6-0.5,0.8-1.7c-0.1,0.1-0.3,0.3-0.5,0.4C200.9,63.8,200.7,63.9,200.5,64 M213.1,28.9c0.1-0.2,0.9-1.2,1.9-2.5
		c-0.1-0.1-0.1-0.2-0.2-0.3c-0.7,0.9-1.4,1.8-2,2.7c-0.5,0.7-1.3,1.7-1.3,1.9C211.4,30.9,212.7,29.4,213.1,28.9 M218.8,22.4
		c-0.1,0.1-0.4,0.5-0.4,0.5c0.3,0.6,0.6,1.1,1.5,1.6C219.6,23.7,219.2,23,218.8,22.4 M217.9,21.9c0,0,0.1,0.2,0.2,0.3
		c2-2.7,3.8-5.1,3.8-5.1s-0.8,0.6-1.9,1.1c0.1,0.6-0.3,1.4-0.4,1.5C219.6,19.7,218.9,20.6,217.9,21.9 M185.9,21.1
		c0.1,0.1,0.2,0.3,0.3,0.4c1.5-1.9,3.5-3.3,5.9-4.2c-0.2-0.3-0.5-0.9,0.2-1.6c0,0,0,0,0,0c1,0.1,1.3,0.8,1.4,1.1
		c1.9-0.5,4.1-0.8,6.6-0.9c0.1-1.7,1.3-2.1,1.3-2.1s0-0.3,0.3-0.4c0,0,0,0,0,0c0.3,0.1,0.3,0.4,0.3,0.4s1.2,0.4,1.3,2.1
		c2.5,0.1,4.7,0.4,6.6,0.9c0.1-0.3,0.3-1,1.4-1.1c0,0,0,0,0,0c0.7,0.7,0.4,1.3,0.2,1.6c2.4,0.9,4.5,2.3,6,4.2
		c0.1-0.1,0.2-0.3,0.3-0.4c-1.4-1.7-3.4-3.1-5.5-4c0.2-0.7,0-1.3-0.4-1.7c0-0.3-0.2-0.5-0.3-0.6c0,0,0,0,0,0c-0.2,0-0.5,0.1-0.7,0.3
		c-0.6,0.1-1.2,0.4-1.5,1c-1.6-0.4-3.3-0.6-5.5-0.7c-0.1-1-0.7-1.7-1.4-2c-0.2-0.4-0.5-0.6-0.7-0.6c-0.3,0.1-0.6,0.3-0.7,0.6
		c-0.7,0.4-1.3,1-1.4,2c-2.2,0.1-4,0.4-5.5,0.7c-0.3-0.6-0.9-1-1.5-1c-0.2-0.2-0.5-0.3-0.7-0.3c-0.2,0.1-0.3,0.3-0.3,0.6
		c-0.4,0.4-0.6,1-0.4,1.7C189.2,18,187.3,19.4,185.9,21.1 M185.8,22.1c0.1-0.1,0.1-0.2,0.2-0.3c-0.9-1.2-1.5-2-1.6-2.1
		c-0.1-0.2-0.5-0.9-0.4-1.5c-1.1-0.5-1.9-1.1-1.9-1.1S183.9,19.5,185.8,22.1 M183.9,24.5c0.2-0.1,0.7-0.5,1.1-1
		c0.2-0.3,0.3-0.5,0.4-0.7c0,0-0.4-0.5-0.4-0.5C184.7,23,184.3,23.7,183.9,24.5 M180.8,39.1c0.4,0.3,2.2,1.8,5,3.5
		c0.1-1.7,0.1-7.8,3.8-14.4c-0.4-0.6-0.6-0.8-1-1.3c-0.3,0.3-0.7,0.5-1.3,0.7c0-1.3-0.3-2-0.6-2.8c-0.5,0-1.4,0-2.8-0.3
		C182.1,28.5,181.1,33,180.8,39.1 M197.5,66.9L197.5,66.9c0.1-0.3,0.6-1.5,0.8-2c0-0.1-0.1-0.2-0.1-0.3c-0.3,0.1-0.7,0.1-1,0.1
		c-0.2,0-3.5,0.5-5.9-0.6c0.3-0.2,0.8-0.6,1.6-1.1c0,0,0-0.1,0-0.1c-0.6,0.3-1.1,0.4-1.5,0.4c0-0.4,0.1-0.9,0.3-1.4
		c-0.5,0.1-1,0-1,0s0.4-1.1,1.1-2.5c0.7-1.3,1.7-2.6,2.6-3.7c0.1-0.4,0.4-0.8,0.5-0.8c0,0,0.1-0.1,0.1-0.2c-0.1-0.1-0.2-0.2-0.3-0.2
		c-0.1,0.1-0.2,0.2-0.2,0.2c-0.3,0.1-0.4,0.2-0.6,0.2c-0.3,0-0.5,0-0.6-0.2l0,0c-0.2-0.1-0.4-0.2-0.4-0.4c0,0,0-0.1,0-0.1
		c-0.2,0.1-0.3,0.1-0.4-0.1c-0.2-0.2,0.1-1.1,1.1-2c0.7-0.7,1.4-1,2-1.3c0.5-0.2,0.7,0.2,0.5,0.5c-0.3,0.3-0.5,0.9-0.2,1.5
		c0.3-0.1,0.4-0.1,0.4-0.2c0.1,0,0.2-0.1,0.4-0.3c0,0,0-0.1,0-0.1l-0.4,0c0.2-0.5-0.1-1.8,0.1-2.6c-0.1,0-0.2,0.1-0.3,0.2
		c-0.2-0.8-0.1-2-0.1-2.5c0-0.2-0.2-0.4-0.5-0.7c-0.2,0.6-0.6,1.3-1.3,2.2c-0.5,0.6-1.5,1.2-2,3.3c0,0,0,0,0,0
		c-0.1,0.3-0.2,0.6-0.3,1c-0.3,0.7-0.3,1-0.3,1l0,0c0,1.3,0,4-0.3,5.6c-0.3,1.3-0.8,2-0.8,2l-0.1-0.1c-0.1,0.5-0.3,1.3-0.9,1.9
		c0,0-0.4-0.9-1.3-7.7c-0.9-7.5-1.3-15.3-1.3-15.3l0,0c-0.1-1.4,0.2-3,0.6-4.2c0.7-1.9,2-3.7,2.8-4.5c0.5-0.5,1-0.6,1.5-0.5
		c-0.1-0.2-0.3-0.4-0.3-0.4c-0.5-0.7-1.1-1.4-1.6-2.1c-3.7,6.4-3.6,14.1-3.6,14.2l0,0.8l-0.6-0.3c-2.9-1.6-4.1-2.6-5.1-3.4
		c0,0.8-0.1,3.4-0.1,3.4c0,0,0,0.6,0,1.6c0,3.1,0.6,10.6,3.1,15.8c0.4,0.6,1.3,2.4,3,4c1.3,1.2,2.8,2.1,4.4,2.6
		c0.1,0,0.3,0.1,0.4,0.1C193.4,68.1,195.5,68,197.5,66.9 M197.4,69.1c0.4-0.3,1-0.6,1.7-0.2c0-0.9,0.2-2.3,0.4-3.4
		c-0.3,0.3-0.5,0.4-0.6,0.4c0,0-0.1,0-0.2-0.1C198.2,67.1,197.4,69.1,197.4,69.1 M204.7,69.7c0-1-0.3-3.5-0.6-5c0,0-0.1-0.1-0.1-0.1
		c0-0.1-0.1-0.1-0.1-0.2c-0.1,0.3-0.2,0.6-0.3,0.9c-0.2,0.4-0.4,0.7-0.5,0.7c0,0-0.7-0.5-1.2-1.4c-0.4,0.9-1.1,1.4-1.2,1.4
		c0,0-0.3-0.4-0.5-0.7c-0.1-0.2-0.1-0.3-0.2-0.5c-0.2,1.5-0.6,4-0.5,4.9c-1.4-0.9-2.3,0-2,0.7c0,0.1,0.1,0.1,0.1,0.2
		c0.2,0.2,0.4,0.3,0.7,0.4c0.5,0,1.1,0.1,1.7,0.4c0.6,0.3,1.3,0.8,2,1.6c0.7-0.9,1.4-1.3,2-1.6c0.7-0.3,1.3-0.4,1.7-0.4
		c0.3,0,0.5-0.2,0.7-0.4c0,0,0.1-0.1,0.1-0.2C207,69.7,206.1,68.8,204.7,69.7 M206.8,69.1c0,0-0.9-2.2-1.4-3.6
		c-0.1,0.2-0.3,0.3-0.3,0.3c0,0-0.2-0.1-0.5-0.3c0.2,1.1,0.4,2.4,0.4,3.4C205.9,68.5,206.5,68.8,206.8,69.1 M223.2,43.4
		c0-1-0.1-2.7-0.1-3.5c-1,0.8-1.9,1.6-4.9,3.3l-0.8,0.4l0-0.6c0-0.1,0.2-7.7-3.5-14.4c-0.2,0.3-1,1.3-1.8,2.3c0.5-0.1,1,0.1,1.4,0.5
		c0.8,0.8,2,2.6,2.8,4.5c0.4,1.2,0.7,2.8,0.6,4.2c0,0,0,0,0,0s-0.5,7.8-1.3,15.3c-0.8,6.8-1.3,7.7-1.3,7.7c-0.5-0.6-0.7-1.4-0.9-1.9
		l-0.1,0.1c0,0-0.5-0.7-0.8-2c-0.3-1.5-0.4-4.3-0.3-5.6l0,0c0,0,0-0.4-0.3-1c-0.1-0.3-0.3-0.6-0.3-1c0,0,0,0,0,0
		c-0.5-2.1-1.4-2.7-2-3.3c-0.6-0.8-1.1-1.6-1.4-2.3c0,0,0,0-0.1,0c-0.3,0.3-0.6,0.7-0.6,0.9c0.1,1.2,0.2,2.1,0,2.7
		c-0.1,0-0.2-0.2-0.3-0.2c0.1,0.8-0.3,1.7-0.1,2.5l-0.5-0.1c0,0.1,0,0.1,0.1,0.1c0.1,0.1,0.1,0.1,0.2,0.2c0,0,0.1,0.1,0.2,0.1
		c0,0,0.2,0.1,0.5,0.2c0.3-0.6,0.1-1.2-0.2-1.5c-0.2-0.3,0-0.7,0.5-0.5c0.6,0.3,1.3,0.7,2,1.3c1,0.9,1.3,1.9,1.1,2
		c-0.2,0.1-0.3,0.1-0.5,0c0,0,0,0.1,0,0.1c-0.1,0.2-0.2,0.3-0.4,0.4l0,0c-0.1,0.2-0.3,0.2-0.6,0.2c-0.3,0-0.5-0.2-0.6-0.2
		c-0.1,0-0.1-0.1-0.2-0.1c-0.1,0-0.1,0.1-0.2,0.1c0.8,1.1,2.3,2.8,3.4,4.7c0.8,1.4,1.1,2.5,1.1,2.5s-0.4,0.1-1,0
		c0.2,0.6,0.3,1,0.3,1.4c-0.4,0-1,0-1.5-0.4c0,0.1,0,0.2,0,0.3c0.5,0.3,1,0.8,1.3,0.9c-2.4,1.1-5.8,0.6-5.9,0.6
		c-0.2,0-0.3,0-0.4-0.1c0,0.1-0.1,0.1-0.1,0.2c0.2,0.5,0.8,1.8,0.9,2.1c1.5,0.7,2.9,1.1,5.1,0.8c0,0,0.4,0,1.3-0.3
		c0.9-0.3,2.7-1.4,4.1-2.6c1.7-1.6,2.7-3.3,3.1-3.9c2.6-5.1,3.1-12.7,3.1-15.8C223.2,44,223.2,43.5,223.2,43.4"/>
	<path class="st3" d="M24,6.5c0.2,0,0.3-0.1,0.5-0.2c0.1-0.1,0.2-0.3,0.2-0.5c0-0.2-0.1-0.4-0.2-0.5c-0.1-0.1-0.3-0.2-0.5-0.2
		c-0.2,0-0.3,0.1-0.5,0.2c-0.1,0.1-0.2,0.3-0.2,0.5c0,0.2,0.1,0.3,0.2,0.5C23.7,6.5,23.8,6.5,24,6.5"/>
	<path class="st3" d="M26.3,6.5c0.2,0,0.3-0.1,0.5-0.2C26.9,6.2,27,6,27,5.9c0-0.2-0.1-0.4-0.2-0.5c-0.1-0.1-0.3-0.2-0.5-0.2
		c-0.2,0-0.3,0.1-0.5,0.2c-0.1,0.1-0.2,0.3-0.2,0.5c0,0.2,0.1,0.3,0.2,0.5C25.9,6.5,26.1,6.5,26.3,6.5"/>
	<path class="st3" d="M41.1,7c0.2,0,0.3-0.1,0.5-0.2c0.1-0.1,0.2-0.3,0.2-0.5S41.7,6,41.5,5.8c-0.1-0.1-0.3-0.2-0.5-0.2
		c-0.2,0-0.3,0.1-0.5,0.2c-0.1,0.1-0.2,0.3-0.2,0.5s0.1,0.3,0.2,0.5C40.7,6.9,40.9,7,41.1,7"/>
	<path class="st3" d="M49.7,14.5h3.6h1.9V4h-1v9.5h-0.9h-3.6h-3.6h-3.6h-0.9V8.4h-1v5.1h-1.2h-3.6h-3.6h-3.6h-1.4
		c0.2-0.3,0.4-0.7,0.5-1.1c0.1-0.4,0.2-0.8,0.2-1.3c0-0.5-0.1-0.9-0.2-1.3c-0.1-0.4-0.3-0.8-0.6-1.1c-0.2-0.3-0.5-0.6-0.9-0.7
		c-0.3-0.2-0.7-0.3-1-0.3c-0.4,0-0.7,0.1-1.1,0.3c-0.3,0.2-0.6,0.4-0.9,0.7c-0.2,0.3-0.4,0.7-0.6,1.1c-0.1,0.4-0.2,0.9-0.2,1.3
		c0,0.5,0.1,0.9,0.2,1.3s0.3,0.8,0.5,1.1h-1.4h-3.6h-3.6H11c0,0,0,0,0,0v0h-0.1c-0.1,0-0.2,0-0.3-0.1c-0.1-0.1-0.2-0.2-0.3-0.4
		c-0.1-0.2-0.2-0.5-0.2-0.8C10,11.9,9.9,11.5,9.9,11V4h-1v10.4c0,0.6-0.2,1.1-0.5,1.4c-0.4,0.3-0.9,0.5-1.5,0.5
		c-0.3,0-0.7-0.1-1.1-0.3c-0.4-0.2-0.7-0.4-1-0.7C4.5,15,4.2,14.6,4,14.2c-0.2-0.4-0.3-0.9-0.3-1.3c0-0.5,0.1-1,0.4-1.5
		c0.3-0.6,0.8-1.1,1.5-1.7L5,8.8C4.5,9.2,4.1,9.5,3.8,9.9c-0.3,0.4-0.5,0.7-0.7,1.1c-0.2,0.4-0.3,0.7-0.4,1
		c-0.1,0.3-0.1,0.6-0.1,0.9c0,0.6,0.1,1.1,0.4,1.6c0.2,0.5,0.6,1,0.9,1.4c0.4,0.4,0.8,0.8,1.3,1c0.5,0.3,1,0.4,1.5,0.4
		c1,0,1.8-0.3,2.4-0.8c0.6-0.5,0.8-1.3,0.8-2.2v-0.2c0.1,0.1,0.3,0.3,0.4,0.3c0.2,0.1,0.3,0.1,0.4,0.1h0.1v0c0,0,0,0,0,0h3.6h3.6
		h3.6h6.8h3.6h3.6h3.6h3.1h3.6H49.7z M26.4,12.7c-0.3,0.4-0.6,0.7-1,0.8h-0.4c-0.4-0.1-0.8-0.3-1-0.8c-0.3-0.4-0.4-1-0.4-1.6
		c0-0.3,0-0.6,0.1-0.9c0.1-0.3,0.2-0.5,0.4-0.8c0.2-0.2,0.3-0.4,0.5-0.5c0.2-0.1,0.4-0.2,0.6-0.2c0.2,0,0.4,0.1,0.6,0.2
		c0.2,0.1,0.4,0.3,0.5,0.5c0.2,0.2,0.3,0.5,0.4,0.8c0.1,0.3,0.1,0.6,0.1,0.9C26.8,11.7,26.7,12.3,26.4,12.7"/>
	<rect x="56.8" y="4" class="st3" width="1" height="10.5"/>
	<path class="st3" d="M60.1,13.8c0.6,0.5,1.4,0.7,2.5,0.7h0.6v0.2c0,0.4,0,0.8,0,1.2c0,0.4-0.1,0.7-0.2,1c-0.1,0.3-0.3,0.5-0.5,0.7
		c-0.2,0.2-0.5,0.3-1,0.3v1c0.6,0,1.1-0.1,1.4-0.3c0.4-0.2,0.6-0.5,0.8-0.9c0.2-0.4,0.3-0.8,0.4-1.2c0.1-0.5,0.1-0.9,0.1-1.4V7.6
		c-0.7,0.1-1.4,0.2-2,0.5C61.6,8.3,61,8.6,60.6,9c-0.4,0.4-0.8,0.8-1,1.3c-0.2,0.5-0.4,1-0.4,1.6C59.2,12.7,59.5,13.3,60.1,13.8
		 M61,10c0.5-0.5,1.2-0.9,2.1-1.1v4.6h-0.4c-0.9,0-1.5-0.1-1.9-0.4c-0.4-0.3-0.6-0.7-0.6-1.2C60.2,11.2,60.5,10.5,61,10"/>
	<path class="st3" d="M75.6,7.3c0.2,0,0.3-0.1,0.5-0.2c0.1-0.1,0.2-0.3,0.2-0.5s-0.1-0.3-0.2-0.5C76,6,75.8,5.9,75.6,5.9
		c-0.2,0-0.3,0.1-0.5,0.2C75,6.3,75,6.4,75,6.6S75,7,75.2,7.1C75.3,7.2,75.5,7.3,75.6,7.3"/>
	<path class="st3" d="M79.1,8.4h-1v5.1h-5c-1.1,0-1.9-0.3-2.5-0.8c-0.6-0.6-0.8-1.4-0.8-2.4c0-0.2,0-0.5,0-0.7
		c0-0.2,0.1-0.5,0.1-0.8l-1-0.2c-0.1,0.3-0.1,0.6-0.1,0.9c0,0.3,0,0.5,0,0.8c0,1.4,0.4,2.5,1.2,3.2c0.8,0.7,1.9,1.1,3.2,1.1h5.9V8.4
		z"/>
	<path class="st3" d="M73.4,7.3c0.2,0,0.3-0.1,0.5-0.2C74,7,74.1,6.8,74.1,6.6S74,6.3,73.9,6.1c-0.1-0.1-0.3-0.2-0.5-0.2
		c-0.2,0-0.3,0.1-0.5,0.2c-0.1,0.1-0.2,0.3-0.2,0.5s0.1,0.3,0.2,0.5C73,7.2,73.2,7.3,73.4,7.3"/>
	<polygon class="st3" points="82.7,14.5 86.3,14.5 89.9,14.5 93.5,14.5 97.2,14.5 97.2,8.4 96.1,8.4 96.1,13.5 93.5,13.5 89.9,13.5 
		86.3,13.5 82.7,13.5 81.8,13.5 81.8,4 80.7,4 80.7,14.5 	"/>
	<path class="st3" d="M94.1,16.2c-0.1,0.1-0.2,0.3-0.2,0.5c0,0.2,0.1,0.3,0.2,0.5c0.1,0.1,0.3,0.2,0.5,0.2s0.3-0.1,0.5-0.2
		c0.1-0.1,0.2-0.3,0.2-0.5c0-0.2-0.1-0.3-0.2-0.5C95,16.1,94.8,16,94.6,16S94.3,16.1,94.1,16.2"/>
	<path class="st3" d="M96.6,16c-0.2,0-0.3,0.1-0.5,0.2C96,16.3,96,16.5,96,16.7c0,0.2,0.1,0.3,0.2,0.5c0.1,0.1,0.3,0.2,0.5,0.2
		c0.2,0,0.3-0.1,0.5-0.2c0.1-0.1,0.2-0.3,0.2-0.5c0-0.2-0.1-0.3-0.2-0.5C97,16.1,96.8,16,96.6,16"/>
	<path class="st3" d="M105.2,14.5C105.2,14.5,105.2,14.5,105.2,14.5l3.6,0h3.6h3.6h0h2.8h3.6h3.1v0c0,0,0,0,0,0h3.6h1.9V4h-1v9.5
		h-0.9h-3.6c0,0,0,0,0,0v0h-0.9V8.4h-1v5.1h-1.2h-3.6h-0.9V4h-1v9.5H116h0h-3.6h-3.6h-3.6c0,0,0,0,0,0v0h-1.1
		c0.1-0.3,0.2-0.6,0.2-0.9c0.1-0.3,0.1-0.7,0.1-1.1c0-0.5-0.1-0.9-0.2-1.4c-0.1-0.5-0.3-0.9-0.6-1.2c-0.3-0.4-0.6-0.6-1-0.9
		c-0.4-0.2-0.9-0.3-1.4-0.3c-0.6,0-1.1,0.1-1.5,0.3c-0.4,0.2-0.8,0.4-1,0.6l0.6,0.8c0.4-0.3,0.7-0.4,1-0.5c0.3-0.1,0.6-0.2,0.9-0.2
		c0.3,0,0.6,0.1,0.9,0.2c0.3,0.2,0.5,0.4,0.7,0.6c0.2,0.3,0.3,0.5,0.4,0.9c0.1,0.3,0.2,0.7,0.2,1.1c0,0.5,0,0.9-0.1,1.2
		c-0.1,0.3-0.2,0.6-0.3,0.8h-4.3v1L105.2,14.5L105.2,14.5z"/>
	<path class="st3" d="M123.6,16.2c-0.1,0.1-0.2,0.3-0.2,0.5s0.1,0.3,0.2,0.5c0.1,0.1,0.3,0.2,0.5,0.2s0.3-0.1,0.5-0.2
		c0.1-0.1,0.2-0.3,0.2-0.5s-0.1-0.3-0.2-0.5c-0.1-0.1-0.3-0.2-0.5-0.2S123.8,16.1,123.6,16.2"/>
	<rect x="132.7" y="4" class="st3" width="1" height="10.5"/>
	<path class="st3" d="M142.6,6.3c0.2,0,0.3-0.1,0.5-0.2c0.1-0.1,0.2-0.3,0.2-0.5s-0.1-0.3-0.2-0.5C143,5,142.8,5,142.6,5
		c-0.2,0-0.3,0.1-0.5,0.2C142,5.3,142,5.5,142,5.6s0.1,0.3,0.2,0.5C142.3,6.3,142.4,6.3,142.6,6.3"/>
	<path class="st3" d="M139.7,13.9c0.4,0.2,0.8,0.4,1.2,0.5c0.4,0.1,0.8,0.1,1.2,0.1h1.1V7.4c-0.2,0-0.4,0.1-0.7,0.2
		c-0.3,0.1-0.6,0.2-1,0.4c-0.4,0.2-0.7,0.4-1.1,0.6c-0.4,0.2-0.7,0.5-1,0.8c-0.3,0.3-0.5,0.7-0.7,1.1c-0.2,0.4-0.3,0.8-0.3,1.3
		c0,0.5,0.1,1,0.4,1.3C139,13.4,139.3,13.7,139.7,13.9 M139.7,10.7c0.2-0.3,0.4-0.6,0.7-0.8c0.3-0.2,0.6-0.5,0.9-0.6
		c0.3-0.2,0.6-0.3,0.8-0.4v4.6H142c-0.3,0-0.6,0-0.9-0.1c-0.3-0.1-0.6-0.1-0.9-0.3c-0.3-0.1-0.5-0.3-0.7-0.5
		c-0.2-0.2-0.3-0.5-0.3-0.8C139.4,11.4,139.5,11,139.7,10.7"/>
	<path class="st3" d="M140.4,6.3c0.2,0,0.3-0.1,0.5-0.2c0.1-0.1,0.2-0.3,0.2-0.5s-0.1-0.3-0.2-0.5C140.7,5,140.6,5,140.4,5
		c-0.2,0-0.3,0.1-0.5,0.2c-0.1,0.1-0.2,0.3-0.2,0.5s0.1,0.3,0.2,0.5C140,6.3,140.2,6.3,140.4,6.3"/>
	<path class="st3" d="M161,6.9h-0.5c-0.3,0-0.5-0.1-0.7-0.2c-0.2-0.1-0.3-0.3-0.3-0.6c0-0.2,0.1-0.3,0.2-0.4
		c0.1-0.1,0.2-0.1,0.4-0.1c0.3,0,0.6,0.1,0.9,0.2l0.2-0.5c-0.4-0.1-0.7-0.2-1.1-0.2c-0.3,0-0.5,0.1-0.7,0.2
		c-0.2,0.1-0.3,0.4-0.3,0.8c0,0.2,0,0.3,0.1,0.5c0.1,0.1,0.1,0.2,0.2,0.3h-0.9v0.5h2.7V6.9z"/>
	<path class="st3" d="M160.7,8.4h-1v5.1h-2h0h-3.6h-3.6h-3.6h0H146V8.4h-1V15c0,0.4,0,0.7,0,1c0,0.3-0.1,0.6-0.2,0.9
		c-0.1,0.3-0.3,0.5-0.5,0.6c-0.2,0.2-0.5,0.2-0.9,0.2v1c0.6,0,1.1-0.1,1.5-0.3c0.4-0.2,0.6-0.5,0.8-0.9c0.2-0.4,0.3-0.8,0.4-1.2
		c0.1-0.5,0.1-0.9,0.1-1.3v-0.5h0.9h0h3.6h3.6h3.6h0h3V8.4z"/>
	<rect x="162.3" y="4" class="st3" width="1" height="10.5"/>
	<path class="st3" d="M169.8,14.1c0.1-0.2,0.2-0.4,0.3-0.7c0.1-0.3,0.2-0.6,0.2-0.9c0.1-0.3,0.1-0.7,0.1-1c0-0.5-0.1-0.9-0.2-1.4
		c-0.1-0.5-0.3-0.9-0.6-1.2c-0.3-0.4-0.6-0.6-1-0.9c-0.4-0.2-0.9-0.3-1.4-0.3c-0.6,0-1.1,0.1-1.5,0.3c-0.4,0.2-0.8,0.4-1,0.6
		l0.6,0.8c0.4-0.3,0.7-0.4,1-0.5c0.3-0.1,0.6-0.1,0.9-0.1c0.3,0,0.6,0.1,0.9,0.2c0.3,0.2,0.5,0.4,0.7,0.6c0.2,0.3,0.3,0.5,0.4,0.9
		c0.1,0.3,0.1,0.7,0.1,1.1c0,0.5,0,0.9-0.1,1.2c-0.1,0.3-0.2,0.6-0.3,0.8h-4.3v1h4.9C169.7,14.4,169.7,14.3,169.8,14.1"/>
	<path class="st3" d="M6.2,23.3H3.6v8.5h2.2c1,0,1.8-0.3,2.3-0.8c0.5-0.5,0.8-1.7,0.8-3.7c0-1.6-0.2-2.7-0.7-3.2
		C7.8,23.6,7.1,23.3,6.2,23.3 M7.8,28.4c0,0.9-0.2,1.5-0.5,1.9c-0.3,0.4-0.8,0.6-1.6,0.6H4.7v-6.6h1.5c0.5,0,1,0.2,1.2,0.5
		c0.3,0.3,0.4,0.9,0.4,1.7V28.4z"/>
	<polygon class="st3" points="11.9,27.9 15,27.9 15,26.9 11.9,26.9 11.9,24.2 15.2,24.2 15.2,23.3 10.8,23.3 10.8,31.8 15.3,31.8 
		15.3,30.8 11.9,30.8 	"/>
	<path class="st3" d="M19.4,23.3h-2.6v8.5h1.1V28h1.4c0.7,0,1.3-0.2,1.7-0.6c0.4-0.4,0.6-1,0.6-1.7c0-0.8-0.2-1.5-0.6-1.8
		C20.6,23.5,20.1,23.3,19.4,23.3 M20.2,26.7c-0.2,0.3-0.6,0.4-1.1,0.4h-1.2v-2.8h1.4c0.4,0,0.7,0.1,0.9,0.4c0.2,0.2,0.3,0.6,0.3,1
		C20.6,26.1,20.5,26.4,20.2,26.7"/>
	<path class="st3" d="M25.1,23.3l-2.7,8.5h1.1l0.6-2h3.3l0.6,2h1.2l-2.8-8.5H25.1z M24.5,28.8l1.3-4.5l1.4,4.5H24.5z"/>
	<path class="st3" d="M34.8,27.8c-0.2-0.3-0.6-0.4-1-0.4c1.1-0.2,1.6-0.9,1.6-2c0-0.7-0.2-1.2-0.5-1.6c-0.4-0.4-0.9-0.6-1.5-0.6
		h-2.9v8.5h1.1v-3.9h1.3c0.8,0,1.2,0.4,1.2,1.1c0,0.6,0.1,1.1,0.1,1.7c0,0.6,0.1,0.9,0.2,1.1h1.1c-0.2-0.6-0.3-1.5-0.3-2.6
		C35.2,28.5,35.1,28.1,34.8,27.8 M33.1,26.9h-1.6v-2.7h1.6c0.4,0,0.7,0.1,0.8,0.4c0.2,0.3,0.3,0.6,0.3,0.9c0,0.4-0.1,0.8-0.3,1
		C33.8,26.8,33.5,26.9,33.1,26.9"/>
	<polygon class="st3" points="36.2,24.2 38.4,24.2 38.4,31.8 39.6,31.8 39.6,24.2 41.8,24.2 41.8,23.3 36.2,23.3 	"/>
	<polygon class="st3" points="46.9,30.5 44.7,23.3 42.9,23.3 42.9,31.8 43.9,31.8 43.9,24.2 46.3,31.8 47.3,31.8 49.7,24.3 
		49.7,31.8 50.9,31.8 50.9,23.3 49.1,23.3 	"/>
	<polygon class="st3" points="53.8,27.9 56.9,27.9 56.9,26.9 53.8,26.9 53.8,24.2 57.2,24.2 57.2,23.3 52.7,23.3 52.7,31.8 
		57.2,31.8 57.2,30.8 53.8,30.8 	"/>
	<polygon class="st3" points="63.6,30.6 60.2,23.3 58.7,23.3 58.7,31.8 59.7,31.8 59.7,24.4 63.1,31.8 64.6,31.8 64.6,23.3 
		63.6,23.3 	"/>
	<polygon class="st3" points="65.7,24.2 67.9,24.2 67.9,31.8 69.1,31.8 69.1,24.2 71.3,24.2 71.3,23.3 65.7,23.3 	"/>
	<path class="st3" d="M77.7,23.1c-0.9,0-1.5,0.2-2,0.7C75.2,24.3,75,25,75,25.9v2.8c0,1.1,0.2,1.9,0.6,2.4c0.4,0.5,1.1,0.8,2.1,0.8
		c0.9,0,1.6-0.3,2-0.8c0.4-0.5,0.6-1.3,0.6-2.5v-2.8c0-0.9-0.2-1.6-0.7-2C79.2,23.4,78.5,23.1,77.7,23.1 M79.2,28.8
		c0,0.8-0.1,1.4-0.4,1.8c-0.2,0.3-0.6,0.5-1.2,0.5c-0.6,0-1-0.2-1.2-0.5c-0.2-0.4-0.3-0.9-0.3-1.7v-2.9c0-1.2,0.5-1.9,1.6-1.9
		c0.5,0,0.9,0.2,1.1,0.5c0.3,0.3,0.4,0.8,0.4,1.3V28.8z"/>
	<polygon class="st3" points="86.2,26.9 83.3,26.9 83.3,24.2 86.4,24.2 86.4,23.3 82.1,23.3 82.1,31.8 83.3,31.8 83.3,27.9 
		86.2,27.9 	"/>
	<polygon class="st3" points="96.9,24.3 96.9,31.8 98,31.8 98,23.3 96.2,23.3 94,30.5 91.9,23.3 90.1,23.3 90.1,31.8 91.1,31.8 
		91.1,24.2 93.5,31.8 94.5,31.8 	"/>
	<path class="st3" d="M104.6,31.2c0.4-0.5,0.7-1.3,0.7-2.5v-5.4h-1.1v5.5c0,0.8-0.1,1.4-0.4,1.7c-0.2,0.3-0.6,0.5-1.2,0.5
		c-0.5,0-0.9-0.2-1.2-0.5c-0.2-0.3-0.4-0.9-0.4-1.7v-5.5h-1.1v5.4c0,1.2,0.2,2,0.7,2.5c0.4,0.5,1.1,0.8,2,0.8
		C103.5,32,104.1,31.7,104.6,31.2"/>
	<polygon class="st3" points="113,31.8 113,23.3 112.1,23.3 112.1,30.6 108.7,23.3 107.2,23.3 107.2,31.8 108.2,31.8 108.2,24.4 
		111.6,31.8 	"/>
	<rect x="115.1" y="23.3" class="st3" width="1.1" height="8.5"/>
	<path class="st3" d="M121.8,30.6c-0.2,0.3-0.6,0.5-1,0.5c-0.6,0-1-0.2-1.2-0.5c-0.2-0.4-0.3-0.9-0.3-1.7v-2.4c0-1,0.1-1.6,0.4-1.9
		c0.3-0.3,0.6-0.4,1.1-0.4c0.8,0,1.2,0.4,1.2,1.3v0.3h1.1v-0.5c0-1.3-0.8-2-2.3-2c-1.8,0-2.7,1-2.7,3v2.5c0,1.3,0.2,2.1,0.7,2.6
		c0.5,0.5,1.1,0.7,1.9,0.7c0.8,0,1.5-0.2,1.9-0.6c0.4-0.4,0.6-1.1,0.6-2h-1.1C122.1,29.8,122,30.3,121.8,30.6"/>
	<rect x="125" y="23.3" class="st3" width="1.1" height="8.5"/>
	<path class="st3" d="M133.1,25.7c0-0.8-0.2-1.5-0.6-1.8c-0.4-0.4-1-0.6-1.7-0.6h-2.6v8.5h1.1V28h1.4c0.7,0,1.3-0.2,1.7-0.6
		C132.9,27,133.1,26.4,133.1,25.7 M131.7,26.7c-0.2,0.3-0.6,0.4-1.1,0.4h-1.2v-2.8h1.4c0.4,0,0.7,0.1,0.9,0.4c0.2,0.2,0.3,0.6,0.3,1
		C132,26.1,131.9,26.4,131.7,26.7"/>
	<path class="st3" d="M140.7,31.8l-2.8-8.5h-1.4l-2.7,8.5h1.1l0.6-2h3.3l0.6,2H140.7z M135.9,28.8l1.3-4.5l1.4,4.5H135.9z"/>
	<polygon class="st3" points="141.9,23.3 141.9,31.8 146.1,31.8 146.1,30.8 143,30.8 143,23.3 	"/>
	<rect x="147.3" y="23.3" class="st3" width="1.1" height="8.5"/>
	<polygon class="st3" points="153,31.8 153,24.2 155.2,24.2 155.2,23.3 149.6,23.3 149.6,24.2 151.8,24.2 151.8,31.8 	"/>
	<rect x="156.4" y="23.3" class="st3" width="1.1" height="8.5"/>
	<polygon class="st3" points="164,24.2 164,23.3 159.6,23.3 159.6,31.8 164.1,31.8 164.1,30.8 160.7,30.8 160.7,27.9 163.8,27.9 
		163.8,26.9 160.7,26.9 160.7,24.2 	"/>
	<path class="st3" d="M167.7,32c1.8,0,2.7-0.8,2.7-2.3c0-0.5-0.2-1-0.5-1.4c-0.3-0.4-0.8-0.7-1.5-1c-0.7-0.3-1.1-0.6-1.3-0.8
		c-0.4-0.3-0.5-0.7-0.5-1c0-0.4,0.1-0.7,0.4-0.9c0.2-0.2,0.6-0.3,1-0.3c0.9,0,1.3,0.5,1.3,1.5h1.1v-0.3c0-0.7-0.2-1.2-0.6-1.6
		s-1-0.6-1.8-0.6c-0.8,0-1.4,0.2-1.9,0.6c-0.4,0.4-0.7,1-0.7,1.7c0,0.5,0.1,0.9,0.4,1.3c0.3,0.4,0.8,0.7,1.7,1.2
		c0.7,0.3,1.1,0.6,1.4,0.9c0.3,0.3,0.4,0.6,0.4,0.9c0,0.4-0.1,0.8-0.4,1c-0.3,0.2-0.6,0.3-1,0.3c-0.5,0-0.9-0.1-1.1-0.4
		c-0.3-0.3-0.4-0.6-0.4-1v-0.3h-1.1v0.3c0,0.8,0.2,1.3,0.6,1.8C166.3,31.8,166.9,32,167.7,32"/>
	<path class="st3" d="M88.7,37.5L86,45.9h1.1l0.6-2H91l0.6,2h1.2l-2.8-8.5H88.7z M88,43l1.3-4.5l1.4,4.5H88z"/>
	<polygon class="st3" points="99,44.8 95.6,37.5 94.1,37.5 94.1,45.9 95,45.9 95,38.5 98.4,45.9 99.9,45.9 99.9,37.5 99,37.5 	"/>
	<path class="st3" d="M104.5,37.5h-2.6v8.5h2.2c1,0,1.8-0.3,2.3-0.8c0.5-0.5,0.8-1.7,0.8-3.7c0-1.6-0.2-2.7-0.7-3.2
		C106.1,37.7,105.4,37.5,104.5,37.5 M106.1,42.6c0,0.9-0.2,1.5-0.5,1.9c-0.3,0.4-0.8,0.6-1.6,0.6H103v-6.6h1.5c0.5,0,1,0.2,1.2,0.5
		c0.3,0.3,0.4,0.9,0.4,1.7V42.6z"/>
	<polygon class="st3" points="110.9,38.4 113.1,38.4 113.1,45.9 114.3,45.9 114.3,38.4 116.5,38.4 116.5,37.5 110.9,37.5 	"/>
	<path class="st3" d="M122,42c-0.2-0.3-0.6-0.4-1-0.4c1.1-0.2,1.6-0.9,1.6-2c0-0.7-0.2-1.2-0.5-1.6c-0.4-0.4-0.9-0.6-1.5-0.6h-2.9
		v8.5h1.1V42h1.3c0.8,0,1.2,0.4,1.2,1.1c0,0.6,0.1,1.1,0.1,1.7c0,0.6,0.1,0.9,0.2,1.1h1.1c-0.2-0.6-0.3-1.5-0.3-2.6
		C122.3,42.7,122.2,42.2,122,42 M120.3,41.1h-1.6v-2.7h1.6c0.4,0,0.7,0.1,0.8,0.4c0.2,0.3,0.3,0.6,0.3,0.9c0,0.4-0.1,0.8-0.3,1
		C120.9,41,120.6,41.1,120.3,41.1"/>
	<path class="st3" d="M126.1,37.5l-2.7,8.5h1.1l0.6-2h3.3l0.6,2h1.2l-2.8-8.5H126.1z M125.4,43l1.3-4.5l1.4,4.5H125.4z"/>
	<polygon class="st3" points="136.3,44.8 133,37.5 131.4,37.5 131.4,45.9 132.4,45.9 132.4,38.5 135.8,45.9 137.3,45.9 137.3,37.5 
		136.3,37.5 	"/>
	<path class="st3" d="M142.2,41.3c-0.7-0.3-1.1-0.6-1.3-0.8c-0.4-0.3-0.5-0.7-0.5-1c0-0.4,0.1-0.7,0.4-0.9c0.2-0.2,0.6-0.3,1-0.3
		c0.9,0,1.3,0.5,1.3,1.5h1.1v-0.3c0-0.7-0.2-1.2-0.6-1.6c-0.4-0.4-1-0.6-1.8-0.6c-0.8,0-1.4,0.2-1.9,0.6c-0.4,0.4-0.7,1-0.7,1.7
		c0,0.5,0.1,0.9,0.4,1.3c0.3,0.4,0.8,0.7,1.7,1.2c0.7,0.3,1.1,0.6,1.4,0.9c0.3,0.3,0.4,0.6,0.4,0.9c0,0.4-0.1,0.8-0.4,1
		c-0.3,0.2-0.6,0.3-1,0.3c-0.5,0-0.9-0.1-1.1-0.4s-0.4-0.6-0.4-1v-0.3H139v0.3c0,0.8,0.2,1.3,0.6,1.8c0.4,0.4,1,0.6,1.8,0.6
		c1.8,0,2.7-0.8,2.7-2.3c0-0.5-0.2-1-0.5-1.4C143.4,42,142.9,41.6,142.2,41.3"/>
	<path class="st3" d="M148.5,37.5h-2.6v8.5h1.1v-3.8h1.4c0.7,0,1.3-0.2,1.7-0.6c0.4-0.4,0.6-1,0.6-1.7c0-0.8-0.2-1.5-0.6-1.8
		C149.8,37.6,149.2,37.5,148.5,37.5 M149.4,40.8c-0.2,0.3-0.6,0.4-1.1,0.4h-1.2v-2.8h1.4c0.4,0,0.7,0.1,0.9,0.4
		c0.2,0.2,0.3,0.6,0.3,1C149.7,40.2,149.6,40.6,149.4,40.8"/>
	<path class="st3" d="M155,37.3c-0.9,0-1.5,0.2-2,0.7c-0.5,0.5-0.7,1.2-0.7,2.1v2.8c0,1.1,0.2,1.9,0.6,2.4c0.4,0.5,1.1,0.8,2.1,0.8
		c0.9,0,1.6-0.3,2-0.8c0.4-0.5,0.6-1.3,0.6-2.5v-2.8c0-0.9-0.2-1.6-0.7-2C156.5,37.5,155.9,37.3,155,37.3 M156.6,42.9
		c0,0.8-0.1,1.4-0.4,1.8c-0.2,0.3-0.6,0.5-1.2,0.5c-0.6,0-1-0.2-1.2-0.5c-0.2-0.4-0.3-0.9-0.3-1.7v-2.9c0-1.2,0.5-1.9,1.6-1.9
		c0.5,0,0.9,0.2,1.1,0.5c0.3,0.3,0.4,0.8,0.4,1.3V42.9z"/>
	<path class="st3" d="M164,42c-0.2-0.3-0.6-0.4-1-0.4c1.1-0.2,1.6-0.9,1.6-2c0-0.7-0.2-1.2-0.5-1.6c-0.4-0.4-0.9-0.6-1.5-0.6h-2.9
		v8.5h1.1V42h1.3c0.8,0,1.2,0.4,1.3,1.1c0,0.6,0.1,1.1,0.1,1.7c0,0.6,0.1,0.9,0.2,1.1h1.1c-0.2-0.6-0.3-1.5-0.3-2.6
		C164.3,42.7,164.2,42.2,164,42 M162.3,41.1h-1.6v-2.7h1.6c0.4,0,0.7,0.1,0.8,0.4c0.2,0.3,0.3,0.6,0.3,0.9c0,0.4-0.1,0.8-0.3,1
		C162.9,41,162.6,41.1,162.3,41.1"/>
	<polygon class="st3" points="165.4,37.5 165.4,38.4 167.6,38.4 167.6,45.9 168.7,45.9 168.7,38.4 170.9,38.4 170.9,37.5 	"/>
	<path class="st1" d="M18.4,73.8h1.4l2.8,8.5h-1.2l-0.6-2h-3.3l-0.6,2h-1.1L18.4,73.8z M19.1,74.8L19.1,74.8l-1.4,4.5h2.7L19.1,74.8
		z"/>
	<path class="st1" d="M23.8,82.3v-8.5h2.8c1.2,0,1.6,0.4,1.9,0.9c0.3,0.5,0.3,1,0.3,1.1c0,1.1-0.4,1.8-1.5,2v0.1
		c1.2,0.1,1.7,0.9,1.7,2c0,2.2-1.6,2.4-2.6,2.4H23.8z M24.9,77.4h1.6c0.9,0,1.3-0.5,1.3-1.4c0-0.7-0.4-1.3-1.3-1.3h-1.5V77.4z
		 M24.9,81.4h1.5c1.2,0,1.6-0.8,1.6-1.5c0-1.4-0.8-1.6-1.9-1.6h-1.2V81.4z"/>
	<path class="st1" d="M30.9,73.8H32v5.5c0,1.9,0.6,2.3,1.6,2.3c1,0,1.6-0.5,1.6-2.3v-5.5h1.1v5.4c0,2.4-0.9,3.3-2.7,3.3
		c-1.8,0-2.7-0.9-2.7-3.3V73.8z"/>
	<path class="st1" d="M40.8,73.8h2.6c1.1,0,1.9,0.4,2.3,1.3c0.3,0.7,0.4,2.4,0.4,2.7c0,1.8-0.2,2.9-0.5,3.4
		c-0.5,0.7-1.3,1.1-2.8,1.1h-2V73.8z M41.8,81.4h1c1.5,0,2.1-0.6,2.1-2.5v-1.7c0-1.7-0.5-2.4-1.7-2.4h-1.4V81.4z"/>
	<polygon class="st1" points="48,82.3 48,73.8 49.1,73.8 49.1,77.5 52.1,77.5 52.1,73.8 53.2,73.8 53.2,82.3 52.1,82.3 52.1,78.4 
		49.1,78.4 49.1,82.3 	"/>
	<path class="st1" d="M57.1,73.8h1.4l2.8,8.5H60l-0.6-2h-3.3l-0.6,2h-1.1L57.1,73.8z M57.7,74.8L57.7,74.8l-1.4,4.5h2.7L57.7,74.8z"
		/>
	<path class="st1" d="M62.5,82.3v-8.5h2.8c1.2,0,1.6,0.4,1.9,0.9c0.3,0.5,0.3,1,0.3,1.1c0,1.1-0.4,1.8-1.5,2v0.1
		c1.2,0.1,1.7,0.9,1.7,2c0,2.2-1.6,2.4-2.6,2.4H62.5z M63.5,77.4h1.6c0.8,0,1.3-0.5,1.3-1.4c0-0.7-0.4-1.3-1.3-1.3h-1.5V77.4z
		 M63.5,81.4h1.5c1.2,0,1.6-0.8,1.6-1.5c0-1.4-0.8-1.6-1.9-1.6h-1.2V81.4z"/>
	<rect x="69.7" y="73.8" class="st1" width="1.1" height="8.5"/>
	<path class="st1" d="M79.2,76.1c0-0.5,0-1-0.2-1.2c-0.2-0.3-0.7-0.4-1-0.4c-0.9,0-1.3,0.5-1.3,0.7c0,0.1-0.2,0.3-0.2,1.8v2.3
		c0,2.1,0.7,2.3,1.5,2.3c0.3,0,1.3-0.1,1.3-1.8h1.1c0,2.7-1.9,2.7-2.4,2.7c-1.1,0-2.7-0.1-2.7-3.4v-2.4c0-2.4,1.1-3.1,2.7-3.1
		c1.7,0,2.3,0.9,2.2,2.5H79.2z"/>
	<rect x="82.2" y="73.8" class="st1" width="1.1" height="8.5"/>
	<polygon class="st1" points="90.1,73.8 90.1,74.7 87.8,74.7 87.8,82.3 86.8,82.3 86.8,74.7 84.5,74.7 84.5,73.8 	"/>
	<polygon class="st1" points="94.9,73.8 96,73.8 93.7,79.1 93.7,82.3 92.6,82.3 92.6,79.1 90.3,73.8 91.6,73.8 93.2,77.9 	"/>
	<polygon class="st1" points="100.8,82.3 99.7,82.3 99.7,73.8 101.5,73.8 103.6,80.9 103.7,80.9 105.8,73.8 107.6,73.8 107.6,82.3 
		106.5,82.3 106.5,74.7 106.5,74.7 104.1,82.3 103.1,82.3 100.8,74.7 100.8,74.7 	"/>
	<path class="st1" d="M109.5,73.8h1.1v5.5c0,1.9,0.6,2.3,1.6,2.3c1,0,1.6-0.5,1.6-2.3v-5.5h1.1v5.4c0,2.4-0.9,3.3-2.7,3.3
		c-1.8,0-2.7-0.9-2.7-3.3V73.8z"/>
	<polygon class="st1" points="122.7,73.8 122.7,82.3 121.2,82.3 117.8,74.9 117.8,74.9 117.8,82.3 116.8,82.3 116.8,73.8 
		118.4,73.8 121.7,81.1 121.7,81.1 121.7,73.8 	"/>
	<rect x="124.8" y="73.8" class="st1" width="1.1" height="8.5"/>
	<path class="st1" d="M131.7,76.1c0-0.5,0-1-0.2-1.2c-0.2-0.3-0.7-0.4-1-0.4c-0.9,0-1.3,0.5-1.3,0.7c0,0.1-0.2,0.3-0.2,1.8v2.3
		c0,2.1,0.7,2.3,1.5,2.3c0.3,0,1.3-0.1,1.3-1.8h1.1c0,2.7-1.9,2.7-2.4,2.7c-1.1,0-2.7-0.1-2.7-3.4v-2.4c0-2.4,1.1-3.1,2.7-3.1
		c1.7,0,2.3,0.9,2.2,2.5H131.7z"/>
	<rect x="134.6" y="73.8" class="st1" width="1.1" height="8.5"/>
	<path class="st1" d="M137.9,82.3v-8.5h2.5c1.1,0,2.4,0.4,2.4,2.4c0,1.9-1.5,2.3-2.4,2.3H139v3.8H137.9z M139,77.6h1.2
		c0.4,0,1.5-0.1,1.5-1.5c0-1.3-1-1.4-1.2-1.4H139V77.6z"/>
	<path class="st1" d="M145.7,73.8h1.4l2.8,8.5h-1.2l-0.6-2h-3.3l-0.6,2h-1.1L145.7,73.8z M146.3,74.8L146.3,74.8l-1.4,4.5h2.7
		L146.3,74.8z"/>
	<polygon class="st1" points="150.9,82.3 150.9,73.8 152,73.8 152,81.4 155.1,81.4 155.1,82.3 	"/>
	<rect x="156.3" y="73.8" class="st1" width="1.1" height="8.5"/>
	<polygon class="st1" points="164.2,73.8 164.2,74.7 162,74.7 162,82.3 160.9,82.3 160.9,74.7 158.7,74.7 158.7,73.8 	"/>
	<polygon class="st1" points="169.1,73.8 170.2,73.8 167.9,79.1 167.9,82.3 166.8,82.3 166.8,79.1 164.5,73.8 165.7,73.8 
		167.4,77.9 	"/>
	<path class="st1" d="M24.4,64.2v1h-1l-1.9-6c-0.3,0.1-0.5,0.2-0.7,0.4c-0.2,0.2-0.4,0.4-0.5,0.6c-0.1,0.2-0.2,0.5-0.3,0.7
		c-0.1,0.2-0.1,0.5-0.1,0.7c0,0.6,0.2,1.1,0.5,1.5c0.4,0.4,0.8,0.8,1.2,1.1c0.1,0.1,0.2,0.2,0.3,0.2c0.1,0.1,0.1,0.1,0.2,0.2
		l0.3,0.4c0,0.3-0.1,0.6-0.2,1c-0.1,0.4-0.3,0.7-0.6,1.1c-0.3,0.3-0.7,0.6-1.1,0.8c-0.5,0.2-1,0.3-1.7,0.3c-0.3,0-0.7-0.1-1-0.2
		c-0.4-0.1-0.7-0.3-1-0.5c-0.3-0.2-0.5-0.5-0.7-0.9c-0.2-0.4-0.3-0.8-0.3-1.3v-1.3h1v1.3c0,0.3,0.1,0.6,0.2,0.8
		c0.1,0.2,0.3,0.4,0.5,0.6c0.2,0.1,0.4,0.3,0.6,0.3c0.2,0.1,0.4,0.1,0.6,0.1c0.5,0,0.9-0.1,1.3-0.2c0.3-0.2,0.6-0.3,0.8-0.6
		c0.2-0.2,0.3-0.4,0.4-0.7c0.1-0.2,0.1-0.4,0.2-0.5l-0.1-0.1c-0.2-0.1-0.4-0.3-0.7-0.5c-0.3-0.2-0.5-0.5-0.8-0.7
		c-0.3-0.3-0.5-0.6-0.6-1c-0.2-0.4-0.3-0.8-0.3-1.3c0-0.5,0.1-0.9,0.2-1.3c0.1-0.4,0.3-0.8,0.6-1.1c0.3-0.3,0.6-0.6,1-0.8
		c0.4-0.2,0.9-0.4,1.5-0.4l1.9,6.2H24.4z M18.2,70.1c0,0.2-0.1,0.3-0.2,0.5c-0.1,0.1-0.3,0.2-0.5,0.2s-0.3-0.1-0.5-0.2
		c-0.1-0.1-0.2-0.3-0.2-0.5c0-0.2,0.1-0.3,0.2-0.5c0.1-0.1,0.3-0.2,0.5-0.2s0.3,0.1,0.5,0.2C18.2,69.7,18.2,69.9,18.2,70.1
		 M20.5,70.1c0,0.2-0.1,0.3-0.2,0.5c-0.1,0.1-0.3,0.2-0.5,0.2c-0.2,0-0.3-0.1-0.5-0.2c-0.1-0.1-0.2-0.3-0.2-0.5
		c0-0.2,0.1-0.3,0.2-0.5c0.1-0.1,0.3-0.2,0.5-0.2c0.2,0,0.3,0.1,0.5,0.2C20.4,69.7,20.5,69.9,20.5,70.1"/>
	<path class="st1" d="M28,65.2h-3.6c-0.2,0-0.4-0.1-0.5-0.2c-0.1-0.1-0.2-0.2-0.2-0.3s0.1-0.2,0.2-0.3c0.1-0.1,0.3-0.2,0.5-0.2H28
		V65.2z"/>
	<path class="st1" d="M31.6,65.2H28c-0.2,0-0.4-0.1-0.5-0.2c-0.1-0.1-0.2-0.2-0.2-0.3s0.1-0.2,0.2-0.3c0.1-0.1,0.3-0.2,0.5-0.2h3.6
		V65.2z"/>
	<path class="st1" d="M32.8,64.2v-5.1h1v5.1h0.9v1h-3.1c-0.2,0-0.4-0.1-0.5-0.2c-0.1-0.1-0.2-0.2-0.2-0.3s0.1-0.2,0.2-0.3
		c0.1-0.1,0.3-0.2,0.5-0.2H32.8z M32.6,67.4c0-0.2,0.1-0.3,0.2-0.5c0.1-0.1,0.3-0.2,0.5-0.2c0.2,0,0.3,0.1,0.5,0.2
		c0.1,0.1,0.2,0.3,0.2,0.5c0,0.2-0.1,0.3-0.2,0.5c-0.1,0.1-0.3,0.2-0.5,0.2c-0.2,0-0.3-0.1-0.5-0.2C32.6,67.8,32.6,67.6,32.6,67.4"
		/>
	<path class="st1" d="M38.3,65.2h-3.6c-0.2,0-0.4-0.1-0.5-0.2c-0.1-0.1-0.2-0.2-0.2-0.3s0.1-0.2,0.2-0.3c0.1-0.1,0.3-0.2,0.5-0.2
		h3.6V65.2z"/>
	<path class="st1" d="M41.9,65.2h-3.6c-0.2,0-0.4-0.1-0.5-0.2c-0.1-0.1-0.2-0.2-0.2-0.3s0.1-0.2,0.2-0.3c0.1-0.1,0.3-0.2,0.5-0.2
		h3.6V65.2z"/>
	<path class="st1" d="M41.9,65.2c-0.2,0-0.4-0.1-0.5-0.2c-0.1-0.1-0.2-0.2-0.2-0.3c0-0.1,0.1-0.2,0.2-0.3c0.1-0.1,0.3-0.2,0.5-0.2h1
		v-9.5h1v7.2c0.3-0.4,0.6-0.8,1-1.2c0.4-0.4,0.9-0.8,1.4-1.1c0.6-0.3,1.2-0.6,2-0.8c0.7-0.2,1.6-0.3,2.6-0.3h0.5v6.8H41.9z
		 M50.4,59.6c-1.2,0.1-2.2,0.4-3,0.7c-0.8,0.4-1.4,0.8-1.9,1.3c-0.5,0.5-0.8,1-1,1.4c-0.2,0.5-0.4,0.9-0.5,1.1h6.3V59.6z M46.8,57
		c0,0.2-0.1,0.3-0.2,0.5c-0.1,0.1-0.3,0.2-0.5,0.2s-0.3-0.1-0.5-0.2c-0.1-0.1-0.2-0.3-0.2-0.5c0-0.2,0.1-0.3,0.2-0.5
		c0.1-0.1,0.3-0.2,0.5-0.2s0.3,0.1,0.5,0.2C46.8,56.7,46.8,56.8,46.8,57"/>
	<path class="st1" d="M57.7,65.8c0,0.5,0,0.9-0.1,1.4c-0.1,0.5-0.2,0.9-0.4,1.2c-0.2,0.4-0.5,0.6-0.8,0.9c-0.4,0.2-0.8,0.3-1.4,0.3
		v-1c0.4,0,0.7-0.1,1-0.3c0.2-0.2,0.4-0.4,0.5-0.7c0.1-0.3,0.2-0.6,0.2-1c0-0.4,0-0.8,0-1.2v-0.2h-0.4c-1.2,0-2.1-0.2-2.7-0.7
		c-0.6-0.5-0.9-1.1-0.9-1.9c0-0.6,0.1-1.1,0.4-1.6c0.2-0.5,0.6-0.9,1-1.3c0.4-0.4,1-0.7,1.6-0.9c0.6-0.2,1.3-0.4,2-0.5v5.9h0.9v1
		h-0.9V65.8z M56.7,64.2v-4.6c-0.9,0.2-1.6,0.6-2.1,1.1c-0.5,0.5-0.8,1.1-0.8,1.8c0,0.5,0.2,0.9,0.6,1.2c0.4,0.3,1,0.4,1.9,0.4H56.7
		z"/>
	<path class="st1" d="M62.3,65.2h-3.6c-0.2,0-0.4-0.1-0.5-0.2C58,64.9,58,64.8,58,64.7s0.1-0.2,0.2-0.3c0.1-0.1,0.3-0.2,0.5-0.2h3.6
		V65.2z"/>
	<path class="st1" d="M65.8,65.2h-3.6c-0.2,0-0.4-0.1-0.5-0.2c-0.1-0.1-0.2-0.2-0.2-0.3s0.1-0.2,0.2-0.3c0.1-0.1,0.3-0.2,0.5-0.2
		h3.6V65.2z"/>
	<path class="st1" d="M67,64.2v-5.1h1v6.1h-2.2c-0.2,0-0.4-0.1-0.5-0.2c-0.1-0.1-0.2-0.2-0.2-0.3s0.1-0.2,0.2-0.3
		c0.1-0.1,0.3-0.2,0.5-0.2H67z M66.9,67.4c0-0.2,0.1-0.3,0.2-0.5c0.1-0.1,0.3-0.2,0.5-0.2c0.2,0,0.3,0.1,0.5,0.2
		c0.1,0.1,0.2,0.3,0.2,0.5c0,0.2-0.1,0.3-0.2,0.5c-0.1,0.1-0.3,0.2-0.5,0.2c-0.2,0-0.3-0.1-0.5-0.2C66.9,67.8,66.9,67.6,66.9,67.4"
		/>
	<path class="st1" d="M71.6,53.2C71.3,53,71,53,70.7,53c-0.2,0-0.3,0-0.4,0.1c-0.1,0.1-0.2,0.2-0.2,0.4c0,0.3,0.1,0.4,0.3,0.6
		c0.2,0.1,0.4,0.2,0.7,0.2h0.5v0.5H69v-0.5h0.9c-0.1,0-0.1-0.1-0.2-0.3c-0.1-0.1-0.1-0.3-0.1-0.5c0-0.4,0.1-0.6,0.3-0.8
		c0.2-0.1,0.5-0.2,0.7-0.2c0.4,0,0.7,0.1,1.1,0.2L71.6,53.2z M69.8,55.5h1v9.7h-1V55.5z"/>
	<path class="st1" d="M80.4,63.9c0,0.2,0.1,0.3,0.2,0.3h0.7v1h-0.8c-0.3,0-0.6-0.1-0.8-0.3c-0.2-0.2-0.3-0.6-0.3-1l0-4.4
		c-0.2,0.1-0.5,0.3-0.8,0.4c-0.3,0.2-0.6,0.4-0.9,0.6c-0.3,0.3-0.5,0.5-0.7,0.9c-0.2,0.3-0.3,0.7-0.3,1.1c0,0.6,0.2,1,0.5,1.2
		c0.4,0.2,0.9,0.4,1.7,0.4l-0.1,1c-0.7,0-1.2-0.2-1.6-0.3c-0.4-0.2-0.7-0.4-1-0.7c-0.2-0.3-0.4-0.5-0.5-0.8
		c-0.1-0.3-0.1-0.6-0.1-0.9c0-0.7,0.2-1.4,0.6-1.9c0.4-0.5,0.8-1,1.4-1.4c0.5-0.4,1.1-0.7,1.6-0.9c0.5-0.2,1-0.4,1.3-0.5V63.9z
		 M78.1,56.4c0,0.2-0.1,0.3-0.2,0.5C77.8,57,77.6,57,77.4,57s-0.3-0.1-0.5-0.2c-0.1-0.1-0.2-0.3-0.2-0.5c0-0.2,0.1-0.3,0.2-0.5
		c0.1-0.1,0.3-0.2,0.5-0.2s0.3,0.1,0.5,0.2C78,56,78.1,56.2,78.1,56.4 M80.4,56.4c0,0.2-0.1,0.3-0.2,0.5C80,57,79.9,57,79.7,57
		c-0.2,0-0.3-0.1-0.5-0.2c-0.1-0.1-0.2-0.3-0.2-0.5c0-0.2,0.1-0.3,0.2-0.5c0.1-0.1,0.3-0.2,0.5-0.2c0.2,0,0.3,0.1,0.5,0.2
		C80.3,56,80.4,56.2,80.4,56.4"/>
	<path class="st1" d="M84.9,65.2h-3.6c-0.2,0-0.4-0.1-0.5-0.2c-0.1-0.1-0.2-0.2-0.2-0.3s0.1-0.2,0.2-0.3c0.1-0.1,0.3-0.2,0.5-0.2
		h3.6V65.2z"/>
	<path class="st1" d="M88.5,65.2h-3.6c-0.2,0-0.4-0.1-0.5-0.2c-0.1-0.1-0.2-0.2-0.2-0.3s0.1-0.2,0.2-0.3c0.1-0.1,0.3-0.2,0.5-0.2
		h3.6V65.2z"/>
	<path class="st1" d="M88.5,65.2c-0.2,0-0.4-0.1-0.5-0.2c-0.1-0.1-0.2-0.2-0.2-0.3s0.1-0.2,0.2-0.3c0.1-0.1,0.3-0.2,0.5-0.2h1.2
		v-5.1h1v5.1h0.9v1H88.5z M90.2,57.7c-0.2,0-0.3-0.1-0.5-0.2c-0.1-0.1-0.2-0.3-0.2-0.5c0-0.2,0.1-0.3,0.2-0.5
		c0.1-0.1,0.3-0.2,0.5-0.2s0.3,0.1,0.5,0.2c0.1,0.1,0.2,0.3,0.2,0.5c0,0.2-0.1,0.3-0.2,0.5C90.6,57.6,90.4,57.7,90.2,57.7"/>
	<path class="st1" d="M95.2,65.2h-3.6c-0.2,0-0.4-0.1-0.5-0.2c-0.1-0.1-0.2-0.2-0.2-0.3s0.1-0.2,0.2-0.3c0.1-0.1,0.3-0.2,0.5-0.2
		h3.6V65.2z"/>
	<path class="st1" d="M98.8,65.2h-3.6c-0.2,0-0.4-0.1-0.5-0.2c-0.1-0.1-0.2-0.2-0.2-0.3s0.1-0.2,0.2-0.3c0.1-0.1,0.3-0.2,0.5-0.2
		h3.6V65.2z"/>
	<path class="st1" d="M98.8,65.2c-0.2,0-0.4-0.1-0.5-0.2c-0.1-0.1-0.2-0.2-0.2-0.3c0-0.1,0.1-0.2,0.2-0.3c0.1-0.1,0.3-0.2,0.5-0.2
		h2.7v-5.1h1v6.1H98.8z M100,68.1c-0.2,0-0.3-0.1-0.5-0.2c-0.1-0.1-0.2-0.3-0.2-0.5c0-0.2,0.1-0.3,0.2-0.5c0.1-0.1,0.3-0.2,0.5-0.2
		c0.2,0,0.3,0.1,0.5,0.2c0.1,0.1,0.2,0.3,0.2,0.5c0,0.2-0.1,0.3-0.2,0.5C100.3,68,100.2,68.1,100,68.1 M102,68.1
		c-0.2,0-0.3-0.1-0.5-0.2c-0.1-0.1-0.2-0.3-0.2-0.5c0-0.2,0.1-0.3,0.2-0.5c0.1-0.1,0.3-0.2,0.5-0.2c0.2,0,0.3,0.1,0.5,0.2
		c0.1,0.1,0.2,0.3,0.2,0.5c0,0.2-0.1,0.3-0.2,0.5C102.4,68,102.2,68.1,102,68.1"/>
	<path class="st1" d="M104.1,59.3c0.3-0.2,0.6-0.4,1-0.6c0.4-0.2,0.9-0.3,1.5-0.3c0.5,0,1,0.1,1.4,0.3c0.4,0.2,0.7,0.5,1,0.9
		c0.3,0.4,0.5,0.8,0.6,1.2c0.1,0.5,0.2,0.9,0.2,1.4c0,0.4,0,0.8-0.1,1.1c-0.1,0.3-0.1,0.7-0.2,0.9h1.1v1h-6.5v-1h4.3
		c0.1-0.2,0.2-0.5,0.3-0.8c0.1-0.3,0.1-0.7,0.1-1.2c0-0.4-0.1-0.7-0.1-1.1c-0.1-0.3-0.2-0.6-0.4-0.9c-0.2-0.3-0.4-0.5-0.7-0.6
		c-0.3-0.2-0.6-0.2-0.9-0.2c-0.3,0-0.6,0-0.9,0.1c-0.3,0.1-0.6,0.3-1,0.5L104.1,59.3z"/>
	<path class="st1" d="M114.2,65.2h-3.6c-0.2,0-0.4-0.1-0.5-0.2c-0.1-0.1-0.2-0.2-0.2-0.3s0.1-0.2,0.2-0.3c0.1-0.1,0.3-0.2,0.5-0.2
		h3.6V65.2z"/>
	<path class="st1" d="M117.8,65.2h-3.6c-0.2,0-0.4-0.1-0.5-0.2c-0.1-0.1-0.2-0.2-0.2-0.3s0.1-0.2,0.2-0.3c0.1-0.1,0.3-0.2,0.5-0.2
		h3.6V65.2z"/>
	<path class="st1" d="M123.3,58.5v6.8h-5.6c-0.2,0-0.4-0.1-0.5-0.2c-0.1-0.1-0.2-0.2-0.2-0.3c0-0.1,0.1-0.2,0.2-0.3
		c0.1-0.1,0.3-0.2,0.5-0.2h1.4c-0.2-0.2-0.4-0.5-0.5-0.8c-0.1-0.3-0.2-0.7-0.2-1.2c0-0.7,0.2-1.3,0.6-1.7c0.4-0.5,0.9-0.9,1.4-1.1
		c0.5-0.3,1.1-0.5,1.6-0.6C122.6,58.6,123,58.5,123.3,58.5 M122.3,59.7c-0.2,0.1-0.5,0.2-0.8,0.3s-0.6,0.3-0.9,0.5
		c-0.3,0.2-0.5,0.4-0.7,0.7c-0.2,0.3-0.3,0.6-0.3,1c0,0.7,0.2,1.2,0.7,1.5c0.5,0.3,1.2,0.4,2,0.4V59.7z"/>
	<path class="st1" d="M132.8,63.9c0,0.2,0.1,0.3,0.2,0.3h0.7v1h-0.8c-0.3,0-0.6-0.1-0.8-0.3c-0.2-0.2-0.3-0.6-0.3-1l0-4.4
		c-0.2,0.1-0.5,0.3-0.8,0.4c-0.3,0.2-0.6,0.4-0.9,0.6c-0.3,0.3-0.5,0.5-0.7,0.9c-0.2,0.3-0.3,0.7-0.3,1.1c0,0.6,0.2,1,0.5,1.2
		c0.4,0.2,0.9,0.4,1.7,0.4l-0.1,1c-0.7,0-1.2-0.2-1.6-0.3c-0.4-0.2-0.7-0.4-1-0.7c-0.2-0.3-0.4-0.5-0.5-0.8
		c-0.1-0.3-0.1-0.6-0.1-0.9c0-0.7,0.2-1.4,0.6-1.9c0.4-0.5,0.8-1,1.4-1.4c0.5-0.4,1.1-0.7,1.6-0.9c0.5-0.2,1-0.4,1.3-0.5V63.9z
		 M130.5,56.4c0,0.2-0.1,0.3-0.2,0.5c-0.1,0.1-0.3,0.2-0.5,0.2c-0.2,0-0.3-0.1-0.5-0.2c-0.1-0.1-0.2-0.3-0.2-0.5
		c0-0.2,0.1-0.3,0.2-0.5c0.1-0.1,0.3-0.2,0.5-0.2c0.2,0,0.3,0.1,0.5,0.2C130.4,56,130.5,56.2,130.5,56.4 M132.8,56.4
		c0,0.2-0.1,0.3-0.2,0.5c-0.1,0.1-0.3,0.2-0.5,0.2c-0.2,0-0.3-0.1-0.5-0.2c-0.1-0.1-0.2-0.3-0.2-0.5c0-0.2,0.1-0.3,0.2-0.5
		c0.1-0.1,0.3-0.2,0.5-0.2c0.2,0,0.3,0.1,0.5,0.2C132.7,56,132.8,56.2,132.8,56.4"/>
	<path class="st1" d="M137.3,65.2h-3.6c-0.2,0-0.4-0.1-0.5-0.2c-0.1-0.1-0.2-0.2-0.2-0.3s0.1-0.2,0.2-0.3c0.1-0.1,0.3-0.2,0.5-0.2
		h3.6V65.2z"/>
	<path class="st1" d="M139.8,65.2h-2.5c-0.2,0-0.4-0.1-0.5-0.2c-0.1-0.1-0.2-0.2-0.2-0.3s0.1-0.2,0.2-0.3c0.1-0.1,0.3-0.2,0.5-0.2
		h2.5V65.2z"/>
	<path class="st1" d="M143.4,65.2h-3.6c-0.2,0-0.4-0.1-0.5-0.2c-0.1-0.1-0.2-0.2-0.2-0.3s0.1-0.2,0.2-0.3c0.1-0.1,0.3-0.2,0.5-0.2
		h3.6V65.2z"/>
	<path class="st1" d="M143.4,65.2c-0.2,0-0.4-0.1-0.5-0.2c-0.1-0.1-0.2-0.2-0.2-0.3c0-0.1,0.1-0.2,0.2-0.3c0.1-0.1,0.3-0.2,0.5-0.2
		h2.7v-5.1h1v6.1H143.4z M144.6,68.1c-0.2,0-0.3-0.1-0.5-0.2c-0.1-0.1-0.2-0.3-0.2-0.5c0-0.2,0.1-0.3,0.2-0.5
		c0.1-0.1,0.3-0.2,0.5-0.2c0.2,0,0.3,0.1,0.5,0.2c0.1,0.1,0.2,0.3,0.2,0.5c0,0.2-0.1,0.3-0.2,0.5C144.9,68,144.8,68.1,144.6,68.1
		 M146.6,68.1c-0.2,0-0.3-0.1-0.5-0.2c-0.1-0.1-0.2-0.3-0.2-0.5c0-0.2,0.1-0.3,0.2-0.5c0.1-0.1,0.3-0.2,0.5-0.2
		c0.2,0,0.3,0.1,0.5,0.2c0.1,0.1,0.2,0.3,0.2,0.5c0,0.2-0.1,0.3-0.2,0.5C147,68,146.8,68.1,146.6,68.1"/>
	<path class="st1" d="M148.7,59.3c0.3-0.2,0.6-0.4,1-0.6c0.4-0.2,0.9-0.3,1.5-0.3c0.5,0,1,0.1,1.4,0.3c0.4,0.2,0.7,0.5,1,0.9
		c0.3,0.4,0.5,0.8,0.6,1.2c0.1,0.5,0.2,0.9,0.2,1.4c0,0.4,0,0.8-0.1,1.1c-0.1,0.3-0.1,0.7-0.2,0.9h1.1v1h-6.5v-1h4.3
		c0.1-0.2,0.2-0.5,0.3-0.8c0.1-0.3,0.1-0.7,0.1-1.2c0-0.4-0.1-0.7-0.1-1.1c-0.1-0.3-0.2-0.6-0.4-0.9c-0.2-0.3-0.4-0.5-0.7-0.6
		c-0.3-0.2-0.6-0.2-0.9-0.2c-0.3,0-0.6,0-0.9,0.1c-0.3,0.1-0.6,0.3-1,0.5L148.7,59.3z"/>
	<path class="st1" d="M158.8,65.2h-3.6c-0.2,0-0.4-0.1-0.5-0.2c-0.1-0.1-0.2-0.2-0.2-0.3s0.1-0.2,0.2-0.3c0.1-0.1,0.3-0.2,0.5-0.2
		h3.6V65.2z"/>
	<path class="st1" d="M159.7,54.7h1v9.5h0.9v1h-2.8c-0.2,0-0.4-0.1-0.5-0.2c-0.1-0.1-0.2-0.2-0.2-0.3c0-0.1,0.1-0.2,0.2-0.3
		c0.1-0.1,0.3-0.2,0.5-0.2h0.9V54.7z"/>
	<path class="st1" d="M164.3,65.2h-2.7c-0.2,0-0.4-0.1-0.5-0.2c-0.1-0.1-0.2-0.2-0.2-0.3s0.1-0.2,0.2-0.3c0.1-0.1,0.3-0.2,0.5-0.2
		h2.7V65.2z"/>
	<path class="st1" d="M167.9,65.2h-3.6c-0.2,0-0.4-0.1-0.5-0.2c-0.1-0.1-0.2-0.2-0.2-0.3s0.1-0.2,0.2-0.3c0.1-0.1,0.3-0.2,0.5-0.2
		h3.6V65.2z"/>
	<path class="st1" d="M169.1,64.2v-5.1h1v6.1h-2.2c-0.2,0-0.4-0.1-0.5-0.2c-0.1-0.1-0.2-0.2-0.2-0.3s0.1-0.2,0.2-0.3
		c0.1-0.1,0.3-0.2,0.5-0.2H169.1z M168.9,67.4c0-0.2,0.1-0.3,0.2-0.5c0.1-0.1,0.3-0.2,0.5-0.2c0.2,0,0.3,0.1,0.5,0.2
		c0.1,0.1,0.2,0.3,0.2,0.5c0,0.2-0.1,0.3-0.2,0.5c-0.1,0.1-0.3,0.2-0.5,0.2c-0.2,0-0.3-0.1-0.5-0.2C169,67.8,168.9,67.6,168.9,67.4"
		/>
</g>
</svg>
